<svg xmlns="http://www.w3.org/2000/svg" version="1.1" xmlns:xlink="http://www.w3.org/1999/xlink" xmlns:svgjs="http://svgjs.com/svgjs" width="1440" height="560" preserveAspectRatio="none" viewBox="0 0 1440 560"><g mask="url(&quot;#SvgjsMask1810&quot;)" fill="none"><rect width="1440" height="560" x="0" y="0" fill="url(#SvgjsLinearGradient1811)"></rect><path d="M6.01 -31.52L35.46 -14.52L35.46 19.48L6.01 36.48L-23.44 19.48L-23.44 -14.52zM35.46 427.48L64.9 444.48L64.9 478.48L35.46 495.48L6.01 478.48L6.01 444.48zM123.79 172.48L153.24 189.48L153.24 223.48L123.79 240.48L94.35 223.48L94.35 189.48zM153.24 223.48L182.68 240.48L182.68 274.48L153.24 291.48L123.79 274.48L123.79 240.48zM212.13 19.48L241.58 36.48L241.58 70.48L212.13 87.48L182.68 70.48L182.68 36.48zM182.68 70.48L212.13 87.48L212.13 121.48L182.68 138.48L153.24 121.48L153.24 87.48zM212.13 325.48L241.58 342.48L241.58 376.48L212.13 393.48L182.68 376.48L182.68 342.48zM241.58 376.48L271.02 393.48L271.02 427.48L241.58 444.48L212.13 427.48L212.13 393.48zM388.8 325.48L418.25 342.48L418.25 376.48L388.8 393.48L359.36 376.48L359.36 342.48zM359.36 376.48L388.8 393.48L388.8 427.48L359.36 444.48L329.91 427.48L329.91 393.48zM418.25 478.48L447.7 495.48L447.7 529.48L418.25 546.48L388.8 529.48L388.8 495.48zM506.59 19.48L536.03 36.48L536.03 70.48L506.59 87.48L477.14 70.48L477.14 36.48zM477.14 274.48L506.59 291.48L506.59 325.48L477.14 342.48L447.7 325.48L447.7 291.48zM506.59 529.48L536.03 546.48L536.03 580.48L506.59 597.48L477.14 580.48L477.14 546.48zM565.48 325.48L594.92 342.48L594.92 376.48L565.48 393.48L536.03 376.48L536.03 342.48zM594.92 172.48L624.37 189.48L624.37 223.48L594.92 240.48L565.48 223.48L565.48 189.48zM653.82 -31.52L683.26 -14.52L683.26 19.48L653.82 36.48L624.37 19.48L624.37 -14.52zM683.26 19.48L712.71 36.48L712.71 70.48L683.26 87.48L653.82 70.48L653.82 36.48zM742.15 121.48L771.6 138.48L771.6 172.48L742.15 189.48L712.71 172.48L712.71 138.48zM712.71 376.48L742.15 393.48L742.15 427.48L712.71 444.48L683.26 427.48L683.26 393.48zM771.6 70.48L801.04 87.48L801.04 121.48L771.6 138.48L742.15 121.48L742.15 87.48zM948.27 478.48L977.72 495.48L977.72 529.48L948.27 546.48L918.83 529.48L918.83 495.48zM1036.61 121.48L1066.06 138.48L1066.06 172.48L1036.61 189.48L1007.16 172.48L1007.16 138.48zM1036.61 325.48L1066.06 342.48L1066.06 376.48L1036.61 393.48L1007.16 376.48L1007.16 342.48zM1007.16 478.48L1036.61 495.48L1036.61 529.48L1007.16 546.48L977.72 529.48L977.72 495.48zM1124.95 376.48L1154.39 393.48L1154.39 427.48L1124.95 444.48L1095.5 427.48L1095.5 393.48zM1154.39 529.48L1183.84 546.48L1183.84 580.48L1154.39 597.48L1124.95 580.48L1124.95 546.48zM1183.84 -31.52L1213.28 -14.52L1213.28 19.48L1183.84 36.48L1154.39 19.48L1154.39 -14.52zM1183.84 376.48L1213.28 393.48L1213.28 427.48L1183.84 444.48L1154.39 427.48L1154.39 393.48zM1242.73 -31.52L1272.18 -14.52L1272.18 19.48L1242.73 36.48L1213.28 19.48L1213.28 -14.52zM1272.18 223.48L1301.62 240.48L1301.62 274.48L1272.18 291.48L1242.73 274.48L1242.73 240.48zM1301.62 70.48L1331.07 87.48L1331.07 121.48L1301.62 138.48L1272.18 121.48L1272.18 87.48zM1389.96 223.48L1419.4 240.48L1419.4 274.48L1389.96 291.48L1360.51 274.48L1360.51 240.48zM1360.51 274.48L1389.96 291.48L1389.96 325.48L1360.51 342.48L1331.07 325.48L1331.07 291.48zM1448.85 19.48L1478.29 36.48L1478.29 70.48L1448.85 87.48L1419.4 70.48L1419.4 36.48zM1448.85 427.48L1478.29 444.48L1478.29 478.48L1448.85 495.48L1419.4 478.48L1419.4 444.48z" stroke="rgba(69, 176, 158, 1)" stroke-width="2"></path><path d="M2.61 -31.52 a3.4 3.4 0 1 0 6.8 0 a3.4 3.4 0 1 0 -6.8 0zM32.06 -14.52 a3.4 3.4 0 1 0 6.8 0 a3.4 3.4 0 1 0 -6.8 0zM32.06 19.48 a3.4 3.4 0 1 0 6.8 0 a3.4 3.4 0 1 0 -6.8 0zM2.61 36.48 a3.4 3.4 0 1 0 6.8 0 a3.4 3.4 0 1 0 -6.8 0zM-26.84 19.48 a3.4 3.4 0 1 0 6.8 0 a3.4 3.4 0 1 0 -6.8 0zM-26.84 -14.52 a3.4 3.4 0 1 0 6.8 0 a3.4 3.4 0 1 0 -6.8 0zM32.06 427.48 a3.4 3.4 0 1 0 6.8 0 a3.4 3.4 0 1 0 -6.8 0zM61.5 444.48 a3.4 3.4 0 1 0 6.8 0 a3.4 3.4 0 1 0 -6.8 0zM61.5 478.48 a3.4 3.4 0 1 0 6.8 0 a3.4 3.4 0 1 0 -6.8 0zM32.06 495.48 a3.4 3.4 0 1 0 6.8 0 a3.4 3.4 0 1 0 -6.8 0zM2.61 478.48 a3.4 3.4 0 1 0 6.8 0 a3.4 3.4 0 1 0 -6.8 0zM2.61 444.48 a3.4 3.4 0 1 0 6.8 0 a3.4 3.4 0 1 0 -6.8 0zM120.39 172.48 a3.4 3.4 0 1 0 6.8 0 a3.4 3.4 0 1 0 -6.8 0zM149.84 189.48 a3.4 3.4 0 1 0 6.8 0 a3.4 3.4 0 1 0 -6.8 0zM149.84 223.48 a3.4 3.4 0 1 0 6.8 0 a3.4 3.4 0 1 0 -6.8 0zM120.39 240.48 a3.4 3.4 0 1 0 6.8 0 a3.4 3.4 0 1 0 -6.8 0zM90.95 223.48 a3.4 3.4 0 1 0 6.8 0 a3.4 3.4 0 1 0 -6.8 0zM90.95 189.48 a3.4 3.4 0 1 0 6.8 0 a3.4 3.4 0 1 0 -6.8 0zM179.28 240.48 a3.4 3.4 0 1 0 6.8 0 a3.4 3.4 0 1 0 -6.8 0zM179.28 274.48 a3.4 3.4 0 1 0 6.8 0 a3.4 3.4 0 1 0 -6.8 0zM149.84 291.48 a3.4 3.4 0 1 0 6.8 0 a3.4 3.4 0 1 0 -6.8 0zM120.39 274.48 a3.4 3.4 0 1 0 6.8 0 a3.4 3.4 0 1 0 -6.8 0zM208.73 19.48 a3.4 3.4 0 1 0 6.8 0 a3.4 3.4 0 1 0 -6.8 0zM238.18 36.48 a3.4 3.4 0 1 0 6.8 0 a3.4 3.4 0 1 0 -6.8 0zM238.18 70.48 a3.4 3.4 0 1 0 6.8 0 a3.4 3.4 0 1 0 -6.8 0zM208.73 87.48 a3.4 3.4 0 1 0 6.8 0 a3.4 3.4 0 1 0 -6.8 0zM179.28 70.48 a3.4 3.4 0 1 0 6.8 0 a3.4 3.4 0 1 0 -6.8 0zM179.28 36.48 a3.4 3.4 0 1 0 6.8 0 a3.4 3.4 0 1 0 -6.8 0zM208.73 121.48 a3.4 3.4 0 1 0 6.8 0 a3.4 3.4 0 1 0 -6.8 0zM179.28 138.48 a3.4 3.4 0 1 0 6.8 0 a3.4 3.4 0 1 0 -6.8 0zM149.84 121.48 a3.4 3.4 0 1 0 6.8 0 a3.4 3.4 0 1 0 -6.8 0zM149.84 87.48 a3.4 3.4 0 1 0 6.8 0 a3.4 3.4 0 1 0 -6.8 0zM208.73 325.48 a3.4 3.4 0 1 0 6.8 0 a3.4 3.4 0 1 0 -6.8 0zM238.18 342.48 a3.4 3.4 0 1 0 6.8 0 a3.4 3.4 0 1 0 -6.8 0zM238.18 376.48 a3.4 3.4 0 1 0 6.8 0 a3.4 3.4 0 1 0 -6.8 0zM208.73 393.48 a3.4 3.4 0 1 0 6.8 0 a3.4 3.4 0 1 0 -6.8 0zM179.28 376.48 a3.4 3.4 0 1 0 6.8 0 a3.4 3.4 0 1 0 -6.8 0zM179.28 342.48 a3.4 3.4 0 1 0 6.8 0 a3.4 3.4 0 1 0 -6.8 0zM267.62 393.48 a3.4 3.4 0 1 0 6.8 0 a3.4 3.4 0 1 0 -6.8 0zM267.62 427.48 a3.4 3.4 0 1 0 6.8 0 a3.4 3.4 0 1 0 -6.8 0zM238.18 444.48 a3.4 3.4 0 1 0 6.8 0 a3.4 3.4 0 1 0 -6.8 0zM208.73 427.48 a3.4 3.4 0 1 0 6.8 0 a3.4 3.4 0 1 0 -6.8 0zM385.4 325.48 a3.4 3.4 0 1 0 6.8 0 a3.4 3.4 0 1 0 -6.8 0zM414.85 342.48 a3.4 3.4 0 1 0 6.8 0 a3.4 3.4 0 1 0 -6.8 0zM414.85 376.48 a3.4 3.4 0 1 0 6.8 0 a3.4 3.4 0 1 0 -6.8 0zM385.4 393.48 a3.4 3.4 0 1 0 6.8 0 a3.4 3.4 0 1 0 -6.8 0zM355.96 376.48 a3.4 3.4 0 1 0 6.8 0 a3.4 3.4 0 1 0 -6.8 0zM355.96 342.48 a3.4 3.4 0 1 0 6.8 0 a3.4 3.4 0 1 0 -6.8 0zM385.4 427.48 a3.4 3.4 0 1 0 6.8 0 a3.4 3.4 0 1 0 -6.8 0zM355.96 444.48 a3.4 3.4 0 1 0 6.8 0 a3.4 3.4 0 1 0 -6.8 0zM326.51 427.48 a3.4 3.4 0 1 0 6.8 0 a3.4 3.4 0 1 0 -6.8 0zM326.51 393.48 a3.4 3.4 0 1 0 6.8 0 a3.4 3.4 0 1 0 -6.8 0zM414.85 478.48 a3.4 3.4 0 1 0 6.8 0 a3.4 3.4 0 1 0 -6.8 0zM444.3 495.48 a3.4 3.4 0 1 0 6.8 0 a3.4 3.4 0 1 0 -6.8 0zM444.3 529.48 a3.4 3.4 0 1 0 6.8 0 a3.4 3.4 0 1 0 -6.8 0zM414.85 546.48 a3.4 3.4 0 1 0 6.8 0 a3.4 3.4 0 1 0 -6.8 0zM385.4 529.48 a3.4 3.4 0 1 0 6.8 0 a3.4 3.4 0 1 0 -6.8 0zM385.4 495.48 a3.4 3.4 0 1 0 6.8 0 a3.4 3.4 0 1 0 -6.8 0zM503.19 19.48 a3.4 3.4 0 1 0 6.8 0 a3.4 3.4 0 1 0 -6.8 0zM532.63 36.48 a3.4 3.4 0 1 0 6.8 0 a3.4 3.4 0 1 0 -6.8 0zM532.63 70.48 a3.4 3.4 0 1 0 6.8 0 a3.4 3.4 0 1 0 -6.8 0zM503.19 87.48 a3.4 3.4 0 1 0 6.8 0 a3.4 3.4 0 1 0 -6.8 0zM473.74 70.48 a3.4 3.4 0 1 0 6.8 0 a3.4 3.4 0 1 0 -6.8 0zM473.74 36.48 a3.4 3.4 0 1 0 6.8 0 a3.4 3.4 0 1 0 -6.8 0zM473.74 274.48 a3.4 3.4 0 1 0 6.8 0 a3.4 3.4 0 1 0 -6.8 0zM503.19 291.48 a3.4 3.4 0 1 0 6.8 0 a3.4 3.4 0 1 0 -6.8 0zM503.19 325.48 a3.4 3.4 0 1 0 6.8 0 a3.4 3.4 0 1 0 -6.8 0zM473.74 342.48 a3.4 3.4 0 1 0 6.8 0 a3.4 3.4 0 1 0 -6.8 0zM444.3 325.48 a3.4 3.4 0 1 0 6.8 0 a3.4 3.4 0 1 0 -6.8 0zM444.3 291.48 a3.4 3.4 0 1 0 6.8 0 a3.4 3.4 0 1 0 -6.8 0zM503.19 529.48 a3.4 3.4 0 1 0 6.8 0 a3.4 3.4 0 1 0 -6.8 0zM532.63 546.48 a3.4 3.4 0 1 0 6.8 0 a3.4 3.4 0 1 0 -6.8 0zM532.63 580.48 a3.4 3.4 0 1 0 6.8 0 a3.4 3.4 0 1 0 -6.8 0zM503.19 597.48 a3.4 3.4 0 1 0 6.8 0 a3.4 3.4 0 1 0 -6.8 0zM473.74 580.48 a3.4 3.4 0 1 0 6.8 0 a3.4 3.4 0 1 0 -6.8 0zM473.74 546.48 a3.4 3.4 0 1 0 6.8 0 a3.4 3.4 0 1 0 -6.8 0zM562.08 325.48 a3.4 3.4 0 1 0 6.8 0 a3.4 3.4 0 1 0 -6.8 0zM591.52 342.48 a3.4 3.4 0 1 0 6.8 0 a3.4 3.4 0 1 0 -6.8 0zM591.52 376.48 a3.4 3.4 0 1 0 6.8 0 a3.4 3.4 0 1 0 -6.8 0zM562.08 393.48 a3.4 3.4 0 1 0 6.8 0 a3.4 3.4 0 1 0 -6.8 0zM532.63 376.48 a3.4 3.4 0 1 0 6.8 0 a3.4 3.4 0 1 0 -6.8 0zM532.63 342.48 a3.4 3.4 0 1 0 6.8 0 a3.4 3.4 0 1 0 -6.8 0zM591.52 172.48 a3.4 3.4 0 1 0 6.8 0 a3.4 3.4 0 1 0 -6.8 0zM620.97 189.48 a3.4 3.4 0 1 0 6.8 0 a3.4 3.4 0 1 0 -6.8 0zM620.97 223.48 a3.4 3.4 0 1 0 6.8 0 a3.4 3.4 0 1 0 -6.8 0zM591.52 240.48 a3.4 3.4 0 1 0 6.8 0 a3.4 3.4 0 1 0 -6.8 0zM562.08 223.48 a3.4 3.4 0 1 0 6.8 0 a3.4 3.4 0 1 0 -6.8 0zM562.08 189.48 a3.4 3.4 0 1 0 6.8 0 a3.4 3.4 0 1 0 -6.8 0zM650.42 -31.52 a3.4 3.4 0 1 0 6.8 0 a3.4 3.4 0 1 0 -6.8 0zM679.86 -14.52 a3.4 3.4 0 1 0 6.8 0 a3.4 3.4 0 1 0 -6.8 0zM679.86 19.48 a3.4 3.4 0 1 0 6.8 0 a3.4 3.4 0 1 0 -6.8 0zM650.42 36.48 a3.4 3.4 0 1 0 6.8 0 a3.4 3.4 0 1 0 -6.8 0zM620.97 19.48 a3.4 3.4 0 1 0 6.8 0 a3.4 3.4 0 1 0 -6.8 0zM620.97 -14.52 a3.4 3.4 0 1 0 6.8 0 a3.4 3.4 0 1 0 -6.8 0zM709.31 36.48 a3.4 3.4 0 1 0 6.8 0 a3.4 3.4 0 1 0 -6.8 0zM709.31 70.48 a3.4 3.4 0 1 0 6.8 0 a3.4 3.4 0 1 0 -6.8 0zM679.86 87.48 a3.4 3.4 0 1 0 6.8 0 a3.4 3.4 0 1 0 -6.8 0zM650.42 70.48 a3.4 3.4 0 1 0 6.8 0 a3.4 3.4 0 1 0 -6.8 0zM738.75 121.48 a3.4 3.4 0 1 0 6.8 0 a3.4 3.4 0 1 0 -6.8 0zM768.2 138.48 a3.4 3.4 0 1 0 6.8 0 a3.4 3.4 0 1 0 -6.8 0zM768.2 172.48 a3.4 3.4 0 1 0 6.8 0 a3.4 3.4 0 1 0 -6.8 0zM738.75 189.48 a3.4 3.4 0 1 0 6.8 0 a3.4 3.4 0 1 0 -6.8 0zM709.31 172.48 a3.4 3.4 0 1 0 6.8 0 a3.4 3.4 0 1 0 -6.8 0zM709.31 138.48 a3.4 3.4 0 1 0 6.8 0 a3.4 3.4 0 1 0 -6.8 0zM709.31 376.48 a3.4 3.4 0 1 0 6.8 0 a3.4 3.4 0 1 0 -6.8 0zM738.75 393.48 a3.4 3.4 0 1 0 6.8 0 a3.4 3.4 0 1 0 -6.8 0zM738.75 427.48 a3.4 3.4 0 1 0 6.8 0 a3.4 3.4 0 1 0 -6.8 0zM709.31 444.48 a3.4 3.4 0 1 0 6.8 0 a3.4 3.4 0 1 0 -6.8 0zM679.86 427.48 a3.4 3.4 0 1 0 6.8 0 a3.4 3.4 0 1 0 -6.8 0zM679.86 393.48 a3.4 3.4 0 1 0 6.8 0 a3.4 3.4 0 1 0 -6.8 0zM768.2 70.48 a3.4 3.4 0 1 0 6.8 0 a3.4 3.4 0 1 0 -6.8 0zM797.64 87.48 a3.4 3.4 0 1 0 6.8 0 a3.4 3.4 0 1 0 -6.8 0zM797.64 121.48 a3.4 3.4 0 1 0 6.8 0 a3.4 3.4 0 1 0 -6.8 0zM738.75 87.48 a3.4 3.4 0 1 0 6.8 0 a3.4 3.4 0 1 0 -6.8 0zM944.87 478.48 a3.4 3.4 0 1 0 6.8 0 a3.4 3.4 0 1 0 -6.8 0zM974.32 495.48 a3.4 3.4 0 1 0 6.8 0 a3.4 3.4 0 1 0 -6.8 0zM974.32 529.48 a3.4 3.4 0 1 0 6.8 0 a3.4 3.4 0 1 0 -6.8 0zM944.87 546.48 a3.4 3.4 0 1 0 6.8 0 a3.4 3.4 0 1 0 -6.8 0zM915.43 529.48 a3.4 3.4 0 1 0 6.8 0 a3.4 3.4 0 1 0 -6.8 0zM915.43 495.48 a3.4 3.4 0 1 0 6.8 0 a3.4 3.4 0 1 0 -6.8 0zM1033.21 121.48 a3.4 3.4 0 1 0 6.8 0 a3.4 3.4 0 1 0 -6.8 0zM1062.66 138.48 a3.4 3.4 0 1 0 6.8 0 a3.4 3.4 0 1 0 -6.8 0zM1062.66 172.48 a3.4 3.4 0 1 0 6.8 0 a3.4 3.4 0 1 0 -6.8 0zM1033.21 189.48 a3.4 3.4 0 1 0 6.8 0 a3.4 3.4 0 1 0 -6.8 0zM1003.76 172.48 a3.4 3.4 0 1 0 6.8 0 a3.4 3.4 0 1 0 -6.8 0zM1003.76 138.48 a3.4 3.4 0 1 0 6.8 0 a3.4 3.4 0 1 0 -6.8 0zM1033.21 325.48 a3.4 3.4 0 1 0 6.8 0 a3.4 3.4 0 1 0 -6.8 0zM1062.66 342.48 a3.4 3.4 0 1 0 6.8 0 a3.4 3.4 0 1 0 -6.8 0zM1062.66 376.48 a3.4 3.4 0 1 0 6.8 0 a3.4 3.4 0 1 0 -6.8 0zM1033.21 393.48 a3.4 3.4 0 1 0 6.8 0 a3.4 3.4 0 1 0 -6.8 0zM1003.76 376.48 a3.4 3.4 0 1 0 6.8 0 a3.4 3.4 0 1 0 -6.8 0zM1003.76 342.48 a3.4 3.4 0 1 0 6.8 0 a3.4 3.4 0 1 0 -6.8 0zM1003.76 478.48 a3.4 3.4 0 1 0 6.8 0 a3.4 3.4 0 1 0 -6.8 0zM1033.21 495.48 a3.4 3.4 0 1 0 6.8 0 a3.4 3.4 0 1 0 -6.8 0zM1033.21 529.48 a3.4 3.4 0 1 0 6.8 0 a3.4 3.4 0 1 0 -6.8 0zM1003.76 546.48 a3.4 3.4 0 1 0 6.8 0 a3.4 3.4 0 1 0 -6.8 0zM1121.55 376.48 a3.4 3.4 0 1 0 6.8 0 a3.4 3.4 0 1 0 -6.8 0zM1150.99 393.48 a3.4 3.4 0 1 0 6.8 0 a3.4 3.4 0 1 0 -6.8 0zM1150.99 427.48 a3.4 3.4 0 1 0 6.8 0 a3.4 3.4 0 1 0 -6.8 0zM1121.55 444.48 a3.4 3.4 0 1 0 6.8 0 a3.4 3.4 0 1 0 -6.8 0zM1092.1 427.48 a3.4 3.4 0 1 0 6.8 0 a3.4 3.4 0 1 0 -6.8 0zM1092.1 393.48 a3.4 3.4 0 1 0 6.8 0 a3.4 3.4 0 1 0 -6.8 0zM1150.99 529.48 a3.4 3.4 0 1 0 6.8 0 a3.4 3.4 0 1 0 -6.8 0zM1180.44 546.48 a3.4 3.4 0 1 0 6.8 0 a3.4 3.4 0 1 0 -6.8 0zM1180.44 580.48 a3.4 3.4 0 1 0 6.8 0 a3.4 3.4 0 1 0 -6.8 0zM1150.99 597.48 a3.4 3.4 0 1 0 6.8 0 a3.4 3.4 0 1 0 -6.8 0zM1121.55 580.48 a3.4 3.4 0 1 0 6.8 0 a3.4 3.4 0 1 0 -6.8 0zM1121.55 546.48 a3.4 3.4 0 1 0 6.8 0 a3.4 3.4 0 1 0 -6.8 0zM1180.44 -31.52 a3.4 3.4 0 1 0 6.8 0 a3.4 3.4 0 1 0 -6.8 0zM1209.88 -14.52 a3.4 3.4 0 1 0 6.8 0 a3.4 3.4 0 1 0 -6.8 0zM1209.88 19.48 a3.4 3.4 0 1 0 6.8 0 a3.4 3.4 0 1 0 -6.8 0zM1180.44 36.48 a3.4 3.4 0 1 0 6.8 0 a3.4 3.4 0 1 0 -6.8 0zM1150.99 19.48 a3.4 3.4 0 1 0 6.8 0 a3.4 3.4 0 1 0 -6.8 0zM1150.99 -14.52 a3.4 3.4 0 1 0 6.8 0 a3.4 3.4 0 1 0 -6.8 0zM1180.44 376.48 a3.4 3.4 0 1 0 6.8 0 a3.4 3.4 0 1 0 -6.8 0zM1209.88 393.48 a3.4 3.4 0 1 0 6.8 0 a3.4 3.4 0 1 0 -6.8 0zM1209.88 427.48 a3.4 3.4 0 1 0 6.8 0 a3.4 3.4 0 1 0 -6.8 0zM1180.44 444.48 a3.4 3.4 0 1 0 6.8 0 a3.4 3.4 0 1 0 -6.8 0zM1239.33 -31.52 a3.4 3.4 0 1 0 6.8 0 a3.4 3.4 0 1 0 -6.8 0zM1268.78 -14.52 a3.4 3.4 0 1 0 6.8 0 a3.4 3.4 0 1 0 -6.8 0zM1268.78 19.48 a3.4 3.4 0 1 0 6.8 0 a3.4 3.4 0 1 0 -6.8 0zM1239.33 36.48 a3.4 3.4 0 1 0 6.8 0 a3.4 3.4 0 1 0 -6.8 0zM1268.78 223.48 a3.4 3.4 0 1 0 6.8 0 a3.4 3.4 0 1 0 -6.8 0zM1298.22 240.48 a3.4 3.4 0 1 0 6.8 0 a3.4 3.4 0 1 0 -6.8 0zM1298.22 274.48 a3.4 3.4 0 1 0 6.8 0 a3.4 3.4 0 1 0 -6.8 0zM1268.78 291.48 a3.4 3.4 0 1 0 6.8 0 a3.4 3.4 0 1 0 -6.8 0zM1239.33 274.48 a3.4 3.4 0 1 0 6.8 0 a3.4 3.4 0 1 0 -6.8 0zM1239.33 240.48 a3.4 3.4 0 1 0 6.8 0 a3.4 3.4 0 1 0 -6.8 0zM1298.22 70.48 a3.4 3.4 0 1 0 6.8 0 a3.4 3.4 0 1 0 -6.8 0zM1327.67 87.48 a3.4 3.4 0 1 0 6.8 0 a3.4 3.4 0 1 0 -6.8 0zM1327.67 121.48 a3.4 3.4 0 1 0 6.8 0 a3.4 3.4 0 1 0 -6.8 0zM1298.22 138.48 a3.4 3.4 0 1 0 6.8 0 a3.4 3.4 0 1 0 -6.8 0zM1268.78 121.48 a3.4 3.4 0 1 0 6.8 0 a3.4 3.4 0 1 0 -6.8 0zM1268.78 87.48 a3.4 3.4 0 1 0 6.8 0 a3.4 3.4 0 1 0 -6.8 0zM1386.56 223.48 a3.4 3.4 0 1 0 6.8 0 a3.4 3.4 0 1 0 -6.8 0zM1416 240.48 a3.4 3.4 0 1 0 6.8 0 a3.4 3.4 0 1 0 -6.8 0zM1416 274.48 a3.4 3.4 0 1 0 6.8 0 a3.4 3.4 0 1 0 -6.8 0zM1386.56 291.48 a3.4 3.4 0 1 0 6.8 0 a3.4 3.4 0 1 0 -6.8 0zM1357.11 274.48 a3.4 3.4 0 1 0 6.8 0 a3.4 3.4 0 1 0 -6.8 0zM1357.11 240.48 a3.4 3.4 0 1 0 6.8 0 a3.4 3.4 0 1 0 -6.8 0zM1386.56 325.48 a3.4 3.4 0 1 0 6.8 0 a3.4 3.4 0 1 0 -6.8 0zM1357.11 342.48 a3.4 3.4 0 1 0 6.8 0 a3.4 3.4 0 1 0 -6.8 0zM1327.67 325.48 a3.4 3.4 0 1 0 6.8 0 a3.4 3.4 0 1 0 -6.8 0zM1327.67 291.48 a3.4 3.4 0 1 0 6.8 0 a3.4 3.4 0 1 0 -6.8 0zM1445.45 19.48 a3.4 3.4 0 1 0 6.8 0 a3.4 3.4 0 1 0 -6.8 0zM1474.89 36.48 a3.4 3.4 0 1 0 6.8 0 a3.4 3.4 0 1 0 -6.8 0zM1474.89 70.48 a3.4 3.4 0 1 0 6.8 0 a3.4 3.4 0 1 0 -6.8 0zM1445.45 87.48 a3.4 3.4 0 1 0 6.8 0 a3.4 3.4 0 1 0 -6.8 0zM1416 70.48 a3.4 3.4 0 1 0 6.8 0 a3.4 3.4 0 1 0 -6.8 0zM1416 36.48 a3.4 3.4 0 1 0 6.8 0 a3.4 3.4 0 1 0 -6.8 0zM1445.45 427.48 a3.4 3.4 0 1 0 6.8 0 a3.4 3.4 0 1 0 -6.8 0zM1474.89 444.48 a3.4 3.4 0 1 0 6.8 0 a3.4 3.4 0 1 0 -6.8 0zM1474.89 478.48 a3.4 3.4 0 1 0 6.8 0 a3.4 3.4 0 1 0 -6.8 0zM1445.45 495.48 a3.4 3.4 0 1 0 6.8 0 a3.4 3.4 0 1 0 -6.8 0zM1416 478.48 a3.4 3.4 0 1 0 6.8 0 a3.4 3.4 0 1 0 -6.8 0zM1416 444.48 a3.4 3.4 0 1 0 6.8 0 a3.4 3.4 0 1 0 -6.8 0z" fill="rgba(69, 176, 158, 1)"></path><path d="M27.67 -14.48L64.04 6.52L64.04 48.52L27.67 69.52L-8.7 48.52L-8.7 6.52zM64.04 48.52L100.42 69.52L100.42 111.52L64.04 132.52L27.67 111.52L27.67 69.52zM64.04 174.52L100.42 195.52L100.42 237.52L64.04 258.52L27.67 237.52L27.67 195.52zM27.67 237.52L64.04 258.52L64.04 300.52L27.67 321.52L-8.7 300.52L-8.7 258.52zM27.67 363.52L64.04 384.52L64.04 426.52L27.67 447.52L-8.7 426.52L-8.7 384.52zM100.42 111.52L136.79 132.52L136.79 174.52L100.42 195.52L64.04 174.52L64.04 132.52zM136.79 174.52L173.17 195.52L173.17 237.52L136.79 258.52L100.42 237.52L100.42 195.52zM100.42 363.52L136.79 384.52L136.79 426.52L100.42 447.52L64.04 426.52L64.04 384.52zM100.42 489.52L136.79 510.52L136.79 552.52L100.42 573.52L64.04 552.52L64.04 510.52zM209.54 48.52L245.91 69.52L245.91 111.52L209.54 132.52L173.17 111.52L173.17 69.52zM173.17 363.52L209.54 384.52L209.54 426.52L173.17 447.52L136.79 426.52L136.79 384.52zM209.54 426.52L245.91 447.52L245.91 489.52L209.54 510.52L173.17 489.52L173.17 447.52zM245.91 -14.48L282.29 6.52L282.29 48.52L245.91 69.52L209.54 48.52L209.54 6.52zM245.91 111.52L282.29 132.52L282.29 174.52L245.91 195.52L209.54 174.52L209.54 132.52zM245.91 237.52L282.29 258.52L282.29 300.52L245.91 321.52L209.54 300.52L209.54 258.52zM282.29 300.52L318.66 321.52L318.66 363.52L282.29 384.52L245.91 363.52L245.91 321.52zM282.29 426.52L318.66 447.52L318.66 489.52L282.29 510.52L245.91 489.52L245.91 447.52zM245.91 489.52L282.29 510.52L282.29 552.52L245.91 573.52L209.54 552.52L209.54 510.52zM282.29 552.52L318.66 573.52L318.66 615.52L282.29 636.52L245.91 615.52L245.91 573.52zM318.66 237.52L355.04 258.52L355.04 300.52L318.66 321.52L282.29 300.52L282.29 258.52zM355.04 300.52L391.41 321.52L391.41 363.52L355.04 384.52L318.66 363.52L318.66 321.52zM318.66 489.52L355.04 510.52L355.04 552.52L318.66 573.52L282.29 552.52L282.29 510.52zM355.04 552.52L391.41 573.52L391.41 615.52L355.04 636.52L318.66 615.52L318.66 573.52zM391.41 -14.48L427.79 6.52L427.79 48.52L391.41 69.52L355.04 48.52L355.04 6.52zM427.79 174.52L464.16 195.52L464.16 237.52L427.79 258.52L391.41 237.52L391.41 195.52zM391.41 237.52L427.79 258.52L427.79 300.52L391.41 321.52L355.04 300.52L355.04 258.52zM427.79 300.52L464.16 321.52L464.16 363.52L427.79 384.52L391.41 363.52L391.41 321.52zM391.41 489.52L427.79 510.52L427.79 552.52L391.41 573.52L355.04 552.52L355.04 510.52zM427.79 552.52L464.16 573.52L464.16 615.52L427.79 636.52L391.41 615.52L391.41 573.52zM464.16 237.52L500.53 258.52L500.53 300.52L464.16 321.52L427.79 300.52L427.79 258.52zM464.16 489.52L500.53 510.52L500.53 552.52L464.16 573.52L427.79 552.52L427.79 510.52zM536.91 -14.48L573.28 6.52L573.28 48.52L536.91 69.52L500.53 48.52L500.53 6.52zM573.28 48.52L609.66 69.52L609.66 111.52L573.28 132.52L536.91 111.52L536.91 69.52zM536.91 111.52L573.28 132.52L573.28 174.52L536.91 195.52L500.53 174.52L500.53 132.52zM573.28 174.52L609.66 195.52L609.66 237.52L573.28 258.52L536.91 237.52L536.91 195.52zM536.91 237.52L573.28 258.52L573.28 300.52L536.91 321.52L500.53 300.52L500.53 258.52zM536.91 363.52L573.28 384.52L573.28 426.52L536.91 447.52L500.53 426.52L500.53 384.52zM573.28 426.52L609.66 447.52L609.66 489.52L573.28 510.52L536.91 489.52L536.91 447.52zM536.91 489.52L573.28 510.52L573.28 552.52L536.91 573.52L500.53 552.52L500.53 510.52zM573.28 552.52L609.66 573.52L609.66 615.52L573.28 636.52L536.91 615.52L536.91 573.52zM609.66 -14.48L646.03 6.52L646.03 48.52L609.66 69.52L573.28 48.52L573.28 6.52zM646.03 48.52L682.4 69.52L682.4 111.52L646.03 132.52L609.66 111.52L609.66 69.52zM609.66 111.52L646.03 132.52L646.03 174.52L609.66 195.52L573.28 174.52L573.28 132.52zM646.03 552.52L682.4 573.52L682.4 615.52L646.03 636.52L609.66 615.52L609.66 573.52zM682.4 -14.48L718.78 6.52L718.78 48.52L682.4 69.52L646.03 48.52L646.03 6.52zM682.4 111.52L718.78 132.52L718.78 174.52L682.4 195.52L646.03 174.52L646.03 132.52zM718.78 174.52L755.15 195.52L755.15 237.52L718.78 258.52L682.4 237.52L682.4 195.52zM718.78 300.52L755.15 321.52L755.15 363.52L718.78 384.52L682.4 363.52L682.4 321.52zM682.4 489.52L718.78 510.52L718.78 552.52L682.4 573.52L646.03 552.52L646.03 510.52zM718.78 552.52L755.15 573.52L755.15 615.52L718.78 636.52L682.4 615.52L682.4 573.52zM755.15 -14.48L791.53 6.52L791.53 48.52L755.15 69.52L718.78 48.52L718.78 6.52zM755.15 111.52L791.53 132.52L791.53 174.52L755.15 195.52L718.78 174.52L718.78 132.52zM791.53 174.52L827.9 195.52L827.9 237.52L791.53 258.52L755.15 237.52L755.15 195.52zM755.15 237.52L791.53 258.52L791.53 300.52L755.15 321.52L718.78 300.52L718.78 258.52zM791.53 300.52L827.9 321.52L827.9 363.52L791.53 384.52L755.15 363.52L755.15 321.52zM755.15 363.52L791.53 384.52L791.53 426.52L755.15 447.52L718.78 426.52L718.78 384.52zM791.53 426.52L827.9 447.52L827.9 489.52L791.53 510.52L755.15 489.52L755.15 447.52zM755.15 489.52L791.53 510.52L791.53 552.52L755.15 573.52L718.78 552.52L718.78 510.52zM827.9 -14.48L864.27 6.52L864.27 48.52L827.9 69.52L791.53 48.52L791.53 6.52zM864.27 426.52L900.65 447.52L900.65 489.52L864.27 510.52L827.9 489.52L827.9 447.52zM937.02 48.52L973.4 69.52L973.4 111.52L937.02 132.52L900.65 111.52L900.65 69.52zM900.65 237.52L937.02 258.52L937.02 300.52L900.65 321.52L864.27 300.52L864.27 258.52zM937.02 300.52L973.4 321.52L973.4 363.52L937.02 384.52L900.65 363.52L900.65 321.52zM900.65 363.52L937.02 384.52L937.02 426.52L900.65 447.52L864.27 426.52L864.27 384.52zM900.65 489.52L937.02 510.52L937.02 552.52L900.65 573.52L864.27 552.52L864.27 510.52zM937.02 552.52L973.4 573.52L973.4 615.52L937.02 636.52L900.65 615.52L900.65 573.52zM973.4 -14.48L1009.77 6.52L1009.77 48.52L973.4 69.52L937.02 48.52L937.02 6.52zM1009.77 174.52L1046.14 195.52L1046.14 237.52L1009.77 258.52L973.4 237.52L973.4 195.52zM973.4 237.52L1009.77 258.52L1009.77 300.52L973.4 321.52L937.02 300.52L937.02 258.52zM1009.77 300.52L1046.14 321.52L1046.14 363.52L1009.77 384.52L973.4 363.52L973.4 321.52zM1009.77 426.52L1046.14 447.52L1046.14 489.52L1009.77 510.52L973.4 489.52L973.4 447.52zM973.4 489.52L1009.77 510.52L1009.77 552.52L973.4 573.52L937.02 552.52L937.02 510.52zM1046.14 -14.48L1082.52 6.52L1082.52 48.52L1046.14 69.52L1009.77 48.52L1009.77 6.52zM1082.52 48.52L1118.89 69.52L1118.89 111.52L1082.52 132.52L1046.14 111.52L1046.14 69.52zM1118.89 -14.48L1155.27 6.52L1155.27 48.52L1118.89 69.52L1082.52 48.52L1082.52 6.52zM1155.27 48.52L1191.64 69.52L1191.64 111.52L1155.27 132.52L1118.89 111.52L1118.89 69.52zM1118.89 237.52L1155.27 258.52L1155.27 300.52L1118.89 321.52L1082.52 300.52L1082.52 258.52zM1118.89 489.52L1155.27 510.52L1155.27 552.52L1118.89 573.52L1082.52 552.52L1082.52 510.52zM1228.02 174.52L1264.39 195.52L1264.39 237.52L1228.02 258.52L1191.64 237.52L1191.64 195.52zM1191.64 363.52L1228.02 384.52L1228.02 426.52L1191.64 447.52L1155.27 426.52L1155.27 384.52zM1228.02 426.52L1264.39 447.52L1264.39 489.52L1228.02 510.52L1191.64 489.52L1191.64 447.52zM1228.02 552.52L1264.39 573.52L1264.39 615.52L1228.02 636.52L1191.64 615.52L1191.64 573.52zM1300.76 48.52L1337.14 69.52L1337.14 111.52L1300.76 132.52L1264.39 111.52L1264.39 69.52zM1264.39 237.52L1300.76 258.52L1300.76 300.52L1264.39 321.52L1228.02 300.52L1228.02 258.52zM1300.76 300.52L1337.14 321.52L1337.14 363.52L1300.76 384.52L1264.39 363.52L1264.39 321.52zM1264.39 489.52L1300.76 510.52L1300.76 552.52L1264.39 573.52L1228.02 552.52L1228.02 510.52zM1337.14 -14.48L1373.51 6.52L1373.51 48.52L1337.14 69.52L1300.76 48.52L1300.76 6.52zM1373.51 48.52L1409.89 69.52L1409.89 111.52L1373.51 132.52L1337.14 111.52L1337.14 69.52zM1337.14 111.52L1373.51 132.52L1373.51 174.52L1337.14 195.52L1300.76 174.52L1300.76 132.52zM1373.51 300.52L1409.89 321.52L1409.89 363.52L1373.51 384.52L1337.14 363.52L1337.14 321.52zM1337.14 489.52L1373.51 510.52L1373.51 552.52L1337.14 573.52L1300.76 552.52L1300.76 510.52zM1446.26 300.52L1482.63 321.52L1482.63 363.52L1446.26 384.52L1409.89 363.52L1409.89 321.52zM1409.89 363.52L1446.26 384.52L1446.26 426.52L1409.89 447.52L1373.51 426.52L1373.51 384.52zM1409.89 489.52L1446.26 510.52L1446.26 552.52L1409.89 573.52L1373.51 552.52L1373.51 510.52z" stroke="rgba(67, 168, 151, 1)" stroke-width="2"></path></g><defs><mask id="SvgjsMask1810"><rect width="1440" height="560" fill="#ffffff"></rect></mask><linearGradient x1="0%" y1="50%" x2="100%" y2="50%" gradientUnits="userSpaceOnUse" id="SvgjsLinearGradient1811"><stop stop-color="rgba(0, 166, 160, 1)" offset="0"></stop><stop stop-color="rgba(69, 176, 158, 1)" offset="1"></stop></linearGradient></defs></svg>