<?xml version="1.0"?>
<svg xmlns="http://www.w3.org/2000/svg" xmlns:xlink="http://www.w3.org/1999/xlink" xmlns:svgjs="http://svgjs.com/svgjs" version="1.1" width="512" height="512" x="0" y="0" viewBox="0 0 520 520" style="enable-background:new 0 0 512 512" xml:space="preserve" class=""><g><g xmlns="http://www.w3.org/2000/svg" id="_x35_02_x2C__Digital_x2C__Book_x2C__Dictionary_x2C__Literature"><g><path d="m115.74 334.94c-35.309-1.36-63.52-30.4-63.52-66.051 0-35.47 27.941-64.41 63.011-66.03-4.08-10.26-6.34-21.43-6.34-33.14 0-49.55 40.17-89.72 89.72-89.72 39.99 0 73.859 26.17 85.439 62.32 11.431-9.43 26.08-15.1 42.061-15.1 40.45 0 71.582 36.091 65.32 76.35 40.175-6.274 76.34 24.822 76.34 65.32 0 36.511-29.601 66.11-66.11 66.11-.114.001-285.82-.059-285.921-.059z" fill="#ffffff" data-original="#ffffff" style="" class=""/><path d="m362.5 438v27.44c0 8.04-6.52 14.56-14.56 14.56h-38.08c-8.04 0-14.561-6.52-14.561-14.56v-27.44z" fill="#ceece7" data-original="#9bc9ff" style="" class=""/><path d="m362.5 259.36v27.44h-67.2v-2.24-25.2c0-8.041 6.52-14.561 14.561-14.561h38.08c8.039.001 14.559 6.521 14.559 14.561z" fill="#ceece7" data-original="#9bc9ff" style="" class=""/><path d="m362.5 429.58v8.42h-67.2v-25.2-75.6-50.4h67.2v48.19 23.43z" fill="#ffffff" data-original="#ffffff" style="" class=""/><path d="m295.3 438v27.44c0 8.04-6.52 14.56-14.56 14.56h-29.68c-8.04 0-14.561-6.52-14.561-14.56v-4.48-22.96-25.2h58.8v25.2z" fill="#ceece7" data-original="#9bc9ff" style="" class=""/><path d="m295.3 286.8v50.4h-58.8v-52.64c0-8.04 6.52-14.56 14.561-14.56h29.68c8.04 0 14.56 6.52 14.56 14.56v2.24z" fill="#ceece7" data-original="#9bc9ff" style="" class=""/><path d="m236.5 337.2h58.8v75.6h-58.8z" fill="#ffffff" data-original="#ffffff" style="" class=""/><path d="m236.5 438v22.96c0 10.521-8.53 19.04-19.04 19.04h-45.92c-10.52 0-19.04-8.52-19.04-19.04v-22.96z" fill="#ceece7" data-original="#9bc9ff" style="" class=""/><path d="m236.5 238.64v39.76h-84v-39.76c0-10.52 8.52-19.04 19.04-19.04h45.92c10.51 0 19.04 8.52 19.04 19.04z" fill="#ceece7" data-original="#9bc9ff" style="" class=""/><path d="m236.5 284.56v52.64 75.6 25.2h-84v-103.05-56.55h84z" fill="#ffffff" data-original="#ffffff" style="" class=""/><path d="m97.5 385c11.04 0 20 8.95 20 20s-8.96 20-20 20c-11.05 0-20-8.95-20-20s8.95-20 20-20z" fill="#ffffff" data-original="#ffffff" style="" class=""/><circle cx="437.5" cy="95" fill="#ffffff" r="35" data-original="#ffffff" style="" class=""/><g fill="#1e81ce"><circle cx="470" cy="357.5" r="7.5" fill="#00715e" data-original="#1e81ce" style="" class=""/><circle cx="440" cy="167.5" r="7.5" fill="#00715e" data-original="#1e81ce" style="" class=""/><circle cx="425" cy="420" r="7.5" fill="#00715e" data-original="#1e81ce" style="" class=""/><circle cx="340" cy="67.5" r="7.5" fill="#00715e" data-original="#1e81ce" style="" class=""/><circle cx="90" cy="472.5" r="7.5" fill="#00715e" data-original="#1e81ce" style="" class=""/><circle cx="80" cy="42.5" r="7.5" fill="#00715e" data-original="#1e81ce" style="" class=""/><circle cx="60" cy="352.5" r="7.5" fill="#00715e" data-original="#1e81ce" style="" class=""/><circle cx="50" cy="137.5" r="7.5" fill="#00715e" data-original="#1e81ce" style="" class=""/><path d="m217.46 485h-45.92c-13.256 0-24.04-10.784-24.04-24.04v-222.32c0-13.256 10.784-24.04 24.04-24.04h45.92c13.256 0 24.04 10.784 24.04 24.04v45.919c0 2.762-2.238 5-5 5-2.761 0-5-2.238-5-5v-45.919c0-7.742-6.298-14.04-14.04-14.04h-45.92c-7.741 0-14.04 6.298-14.04 14.04v222.32c0 7.742 6.299 14.04 14.04 14.04h45.92c7.742 0 14.04-6.298 14.04-14.04 0-2.762 2.239-5 5-5 2.762 0 5 2.238 5 5 0 13.256-10.784 24.04-24.04 24.04z" fill="#00715e" data-original="#1e81ce" style="" class=""/><path d="m280.74 485h-29.68c-10.786 0-19.561-8.774-19.561-19.56v-180.88c0-10.785 8.774-19.56 19.561-19.56h29.68c10.785 0 19.56 8.774 19.56 19.56 0 2.762-2.238 5-5 5-2.761 0-5-2.238-5-5 0-5.272-4.288-9.56-9.56-9.56h-29.68c-5.271 0-9.561 4.288-9.561 9.56v180.88c0 5.272 4.289 9.56 9.561 9.56h29.68c5.271 0 9.56-4.288 9.56-9.56 0-2.762 2.239-5 5-5 2.762 0 5 2.238 5 5 0 10.786-8.775 19.56-19.56 19.56z" fill="#00715e" data-original="#1e81ce" style="" class=""/><path d="m347.94 485h-38.08c-10.786 0-19.561-8.774-19.561-19.56v-206.08c0-10.786 8.774-19.561 19.561-19.561h38.08c10.785 0 19.56 8.775 19.56 19.561v206.08c0 10.786-8.774 19.56-19.56 19.56zm-38.08-235.2c-5.271 0-9.561 4.289-9.561 9.561v206.08c0 5.272 4.289 9.56 9.561 9.56h38.08c5.271 0 9.56-4.288 9.56-9.56v-206.081c0-5.272-4.288-9.561-9.56-9.561h-38.08z" fill="#00715e" data-original="#1e81ce" style="" class=""/><path d="m236.5 283.4h-84c-2.761 0-5-2.238-5-5s2.239-5 5-5h84c2.762 0 5 2.238 5 5s-2.238 5-5 5z" fill="#00715e" data-original="#1e81ce" style="" class=""/><path d="m236.5 443h-84c-2.761 0-5-2.238-5-5s2.239-5 5-5h84c2.762 0 5 2.238 5 5s-2.238 5-5 5z" fill="#00715e" data-original="#1e81ce" style="" class=""/><path d="m295.3 342.2h-58.8c-2.761 0-5-2.238-5-5s2.239-5 5-5h58.8c2.762 0 5 2.238 5 5s-2.239 5-5 5z" fill="#00715e" data-original="#1e81ce" style="" class=""/><path d="m362.5 291.8h-67.2c-2.761 0-5-2.238-5-5s2.239-5 5-5h67.2c2.762 0 5 2.238 5 5 0 2.761-2.238 5-5 5z" fill="#00715e" data-original="#1e81ce" style="" class=""/><path d="m362.5 443h-67.2c-2.761 0-5-2.238-5-5s2.239-5 5-5h67.2c2.762 0 5 2.238 5 5s-2.238 5-5 5z" fill="#00715e" data-original="#1e81ce" style="" class=""/><path d="m295.3 417.8h-58.8c-2.761 0-5-2.238-5-5s2.239-5 5-5h58.8c2.762 0 5 2.238 5 5 0 2.761-2.239 5-5 5z" fill="#00715e" data-original="#1e81ce" style="" class=""/><path d="m177.7 375.8c-2.762 0-5-2.238-5-5v-58.8c0-2.762 2.238-5 5-5 2.761 0 5 2.238 5 5v58.8c0 2.761-2.239 5-5 5z" fill="#00715e" data-original="#1e81ce" style="" class=""/><path d="m337.3 320h-16.8c-2.761 0-5-2.238-5-5s2.239-5 5-5h16.8c2.762 0 5 2.238 5 5s-2.239 5-5 5z" fill="#00715e" data-original="#1e81ce" style="" class=""/><path d="m337.3 340h-16.8c-2.761 0-5-2.238-5-5s2.239-5 5-5h16.8c2.762 0 5 2.238 5 5s-2.239 5-5 5z" fill="#00715e" data-original="#1e81ce" style="" class=""/><path d="m337.3 360h-16.8c-2.761 0-5-2.238-5-5s2.239-5 5-5h16.8c2.762 0 5 2.238 5 5s-2.239 5-5 5z" fill="#00715e" data-original="#1e81ce" style="" class=""/><path d="m84.784 189.121c-2.482 0-4.635-1.847-4.954-4.374-.624-4.934-.939-9.99-.939-15.027 0-66.014 53.706-119.72 119.719-119.72 41.061 0 78.726 20.544 100.751 54.955 1.488 2.326.811 5.418-1.516 6.907-2.326 1.488-5.418.81-6.907-1.516-20.177-31.525-54.693-50.346-92.328-50.346-60.5 0-109.72 49.22-109.72 109.72 0 4.62.289 9.254.86 13.773.346 2.74-1.595 5.241-4.334 5.587-.212.027-.423.041-.632.041z" fill="#00715e" data-original="#1e81ce" style="" class=""/><path d="m147.834 174.121c-2.48 0-4.633-1.845-4.954-4.37-.252-1.983-.38-4.036-.38-6.101 0-26.826 21.82-48.65 48.641-48.65 16.676 0 31.98 8.349 40.939 22.333 1.49 2.325.813 5.417-1.513 6.907s-5.418.812-6.907-1.513c-7.111-11.1-19.269-17.727-32.52-17.727-21.307 0-38.641 17.338-38.641 38.65 0 1.645.102 3.273.3 4.84.349 2.74-1.59 5.242-4.329 5.59-.213.027-.426.041-.636.041z" fill="#00715e" data-original="#1e81ce" style="" class=""/><path d="m401.66 340-39.161-.01c-2.762-.001-4.999-2.24-4.999-5.001.001-2.761 2.239-4.999 5-4.999h.002l39.16.01c33.694 0 61.108-27.414 61.108-61.11s-27.414-61.11-61.11-61.11c-3.174 0-6.357.246-9.458.73-1.579.249-3.178-.275-4.307-1.403s-1.651-2.728-1.405-4.305c.484-3.115.729-6.301.729-9.471 0-33.696-27.413-61.11-61.109-61.11-14.162 0-27.969 4.957-38.878 13.957-1.28 1.055-3.001 1.407-4.591.941-1.591-.467-2.848-1.693-3.354-3.273-11.273-35.198-43.695-58.846-80.677-58.846-46.715 0-84.72 38.005-84.72 84.72 0 10.776 2.014 21.304 5.985 31.292.598 1.502.432 3.2-.444 4.559-.877 1.358-2.355 2.209-3.971 2.284-32.658 1.509-58.241 28.318-58.241 61.035 0 32.938 25.74 59.737 58.619 61.051l36.663.01c2.761.001 4.999 2.24 4.998 5.001-.001 2.762-2.239 4.999-5 4.999h-.001l-36.761-.01c-.063 0-.127-.001-.19-.004-38.314-1.476-68.328-32.684-68.328-71.047 0-35.822 26.359-65.558 61.135-70.41-2.965-9.285-4.464-18.931-4.464-28.76 0-52.229 42.491-94.72 94.72-94.72 39.024 0 73.509 23.556 87.858 59.291 11.664-7.823 25.501-12.071 39.642-12.071 39.21 0 71.109 31.9 71.109 71.11 0 1.531-.049 3.066-.147 4.597 1.526-.098 3.059-.147 4.588-.147 39.21 0 71.11 31.9 71.11 71.11s-31.9 71.11-71.11 71.11z" fill="#00715e" data-original="#1e81ce" style="" class=""/><path d="m437.5 135c-22.056 0-40-17.944-40-40s17.944-40 40-40c22.057 0 40 17.944 40 40s-17.943 40-40 40zm0-70c-16.542 0-30 13.458-30 30s13.458 30 30 30 30-13.458 30-30-13.458-30-30-30z" fill="#00715e" data-original="#1e81ce" style="" class=""/><path d="m97.5 430c-13.785 0-25-11.215-25-25s11.215-25 25-25 25 11.215 25 25-11.215 25-25 25zm0-40c-8.271 0-15 6.728-15 15s6.729 15 15 15 15-6.728 15-15-6.729-15-15-15z" fill="#00715e" data-original="#1e81ce" style="" class=""/></g></g></g></g></svg>
