<?xml version="1.0"?>
<svg xmlns="http://www.w3.org/2000/svg" xmlns:xlink="http://www.w3.org/1999/xlink" xmlns:svgjs="http://svgjs.com/svgjs" version="1.1" width="512" height="512" x="0" y="0" viewBox="0 0 520 520" style="enable-background:new 0 0 512 512" xml:space="preserve" class=""><g><g xmlns="http://www.w3.org/2000/svg" id="_x35_13_x2C__Education_x2C__Online_x2C__Search_x2C__Screen"><g><path d="m480 411.83c0 14.18-11.49 25.67-25.67 25.67-23.393 0-366.635 0-388.66 0-14.18 0-25.67-11.49-25.67-25.67v-268.66c0-14.18 11.49-25.67 25.67-25.67h388.66c14.18 0 25.67 11.49 25.67 25.67z" fill="#ceece7" data-original="#9bc9ff" style="" class=""/><path d="m450 377.5h-380v-230h380z" fill="#ffffff" data-original="#ffffff" style="" class=""/><path d="m435 52.5c11.04 0 20 8.95 20 20s-8.96 20-20 20c-11.05 0-20-8.95-20-20s8.95-20 20-20z" fill="#ceece7" data-original="#9bc9ff" style="" class=""/><path d="m125 42.5c13.811 0 25 11.19 25 25s-11.189 25-25 25c-13.81 0-25-11.19-25-25s11.19-25 25-25z" fill="#ceece7" data-original="#9bc9ff" style="" class=""/><path d="m344.141 443.36c3.619 3.62 5.859 8.62 5.859 14.14 0 11.05-8.96 20-20 20h-140c-5.53 0-10.53-2.24-14.14-5.86-3.62-3.62-5.86-8.62-5.86-14.14 0-11.05 8.95-20 20-20h140c5.52 0 10.52 2.24 14.141 5.86z" fill="#ffffff" data-original="#ffffff" style="" class=""/><path d="m346.73 215.68c17.569 17.57 17.569 46.07 0 63.64-17.58 17.569-46.07 17.569-63.641 0-17.58-17.57-17.58-46.07 0-63.64 17.571-17.57 46.061-17.57 63.641 0z" fill="#ffffff" data-original="#ffffff" style="" class=""/><path d="m413.9 318.21c3.91 3.91 5.859 9.021 5.859 14.14 0 5.12-1.949 10.24-5.859 14.15-7.811 7.81-20.47 7.81-28.28 0l-37.42-37.42c-27.06 14.64-61.72 10.17-84.12-13.441-25.5-26.89-25.43-69.61.14-96.419 27.23-28.55 72.45-28.95 100.181-1.22 22.42 22.42 26.439 56.26 12.08 82.79zm-67.17-38.89c17.569-17.57 17.569-46.07 0-63.64-17.58-17.57-46.07-17.57-63.641 0-17.58 17.57-17.58 46.07 0 63.64 17.571 17.57 46.061 17.57 63.641 0z" fill="#ceece7" data-original="#9bc9ff" style="" class=""/><g fill="#1e81ce"><circle cx="477.5" cy="95" r="7.5" fill="#00715e" data-original="#1e81ce" style="" class=""/><circle cx="367.5" cy="55" r="7.5" fill="#00715e" data-original="#1e81ce" style="" class=""/><circle cx="282.5" cy="80" r="7.5" fill="#00715e" data-original="#1e81ce" style="" class=""/><path d="m267.07 400.43c1.81 1.811 2.93 4.311 2.93 7.07s-1.12 5.26-2.93 7.07-4.31 2.93-7.07 2.93c-5.52 0-10-4.48-10-10 0-2.76 1.12-5.26 2.931-7.07 1.809-1.81 4.31-2.93 7.069-2.93s5.26 1.12 7.07 2.93z" fill="#00715e" data-original="#1e81ce" style="" class=""/><circle cx="177.5" cy="50" r="7.5" fill="#00715e" data-original="#1e81ce" style="" class=""/><circle cx="67.5" cy="85" r="7.5" fill="#00715e" data-original="#1e81ce" style="" class=""/><path d="m330 482.5h-140c-6.689 0-12.967-2.603-17.681-7.33-4.718-4.718-7.319-10.995-7.319-17.67 0-13.785 11.215-25 25-25 2.762 0 5 2.238 5 5s-2.238 5-5 5c-8.271 0-15 6.728-15 15 0 4.004 1.561 7.77 4.395 10.604 2.829 2.836 6.593 4.396 10.605 4.396h140c8.271 0 15-6.728 15-15 0-4.003-1.561-7.77-4.396-10.604-2.834-2.834-6.601-4.396-10.604-4.396-2.761 0-5-2.238-5-5s2.239-5 5-5c6.675 0 12.952 2.602 17.676 7.325 4.724 4.724 7.324 11.001 7.324 17.675 0 13.785-11.215 25-25 25z" fill="#00715e" data-original="#1e81ce" style="" class=""/><path d="m445 462.5h-50c-2.761 0-5-2.238-5-5s2.239-5 5-5h50c2.762 0 5 2.238 5 5s-2.238 5-5 5z" fill="#00715e" data-original="#1e81ce" style="" class=""/><path d="m125 462.5h-50c-2.761 0-5-2.238-5-5s2.239-5 5-5h50c2.762 0 5 2.238 5 5s-2.238 5-5 5z" fill="#00715e" data-original="#1e81ce" style="" class=""/><path d="m454.33 442.5h-388.66c-16.911 0-30.67-13.759-30.67-30.67v-268.66c0-16.912 13.759-30.67 30.67-30.67h388.66c16.912 0 30.67 13.758 30.67 30.67v268.66c0 16.911-13.758 30.67-30.67 30.67zm-388.66-320c-11.397 0-20.67 9.273-20.67 20.67v268.66c0 11.397 9.272 20.67 20.67 20.67h388.66c11.397 0 20.67-9.272 20.67-20.67v-268.66c0-11.397-9.273-20.67-20.67-20.67z" fill="#00715e" data-original="#1e81ce" style="" class=""/><path d="m450 382.5h-380c-2.761 0-5-2.238-5-5v-230c0-2.761 2.239-5 5-5h380c2.762 0 5 2.239 5 5v230c0 2.762-2.238 5-5 5zm-375-10h370v-220h-370z" fill="#00715e" data-original="#1e81ce" style="" class=""/><path d="m435 97.5c-13.785 0-25-11.215-25-25s11.215-25 25-25 25 11.215 25 25-11.215 25-25 25zm0-40c-8.271 0-15 6.729-15 15s6.729 15 15 15 15-6.729 15-15-6.729-15-15-15z" fill="#00715e" data-original="#1e81ce" style="" class=""/><path d="m125 97.5c-16.542 0-30-13.458-30-30s13.458-30 30-30 30 13.458 30 30-13.458 30-30 30zm0-50c-11.027 0-20 8.972-20 20s8.973 20 20 20c11.028 0 20-8.972 20-20s-8.972-20-20-20z" fill="#00715e" data-original="#1e81ce" style="" class=""/><path d="m399.76 357.357c-6.676 0-12.953-2.601-17.675-7.321l-34.855-34.855c-10.046 4.791-21.15 7.31-32.344 7.31-20.78 0-40.111-8.313-54.433-23.409-13.22-13.94-20.483-32.296-20.454-51.688.029-19.39 7.346-37.724 20.603-51.623 14.311-15.005 33.598-23.269 54.306-23.269 20.032 0 38.865 7.8 53.028 21.964 11.654 11.654 19.002 26.421 21.25 42.706 2.002 14.501-.342 29.501-6.604 42.649l34.854 34.855c4.724 4.723 7.324 11 7.324 17.675 0 6.682-2.601 12.963-7.324 17.686-4.722 4.72-11 7.32-17.676 7.32zm-51.562-53.277c1.296 0 2.575.503 3.537 1.465l37.421 37.42c2.832 2.832 6.599 4.393 10.604 4.393 4.006 0 7.772-1.56 10.604-4.393 2.835-2.835 4.396-6.604 4.396-10.615 0-4.004-1.561-7.77-4.396-10.605l-37.42-37.42c-1.563-1.564-1.914-3.97-.861-5.915 13.576-25.082 8.963-56.694-11.219-76.875-12.275-12.275-28.596-19.035-45.957-19.035-17.947 0-34.663 7.164-47.069 20.17-23.908 25.068-23.966 64.394-.13 89.528 12.414 13.084 29.169 20.291 47.178 20.291 10.797 0 21.494-2.7 30.935-7.808.748-.404 1.566-.601 2.377-.601z" fill="#00715e" data-original="#1e81ce" style="" class=""/><path d="m314.906 297.497c-13.354 0-25.909-5.199-35.352-14.642-9.446-9.441-14.649-21.997-14.649-35.355s5.203-25.915 14.65-35.356c9.441-9.441 21.996-14.641 35.351-14.641 13.354 0 25.912 5.2 35.358 14.641 19.496 19.496 19.496 51.217.001 70.712-9.447 9.442-22.004 14.641-35.359 14.641zm0-89.995c-10.684 0-20.728 4.16-28.28 11.713-7.559 7.554-11.721 17.599-11.721 28.284s4.162 20.73 11.72 28.284c7.554 7.554 17.598 11.713 28.281 11.713 10.685 0 20.731-4.16 28.289-11.713 15.596-15.596 15.596-40.973-.001-56.568-7.556-7.552-17.603-11.713-28.288-11.713z" fill="#00715e" data-original="#1e81ce" style="" class=""/><path d="m175 192.5h-80c-2.761 0-5-2.239-5-5s2.239-5 5-5h80c2.762 0 5 2.239 5 5s-2.238 5-5 5z" fill="#00715e" data-original="#1e81ce" style="" class=""/><path d="m175 217.5h-80c-2.761 0-5-2.239-5-5s2.239-5 5-5h80c2.762 0 5 2.239 5 5s-2.238 5-5 5z" fill="#00715e" data-original="#1e81ce" style="" class=""/><path d="m205 242.5h-110c-2.761 0-5-2.239-5-5s2.239-5 5-5h110c2.762 0 5 2.239 5 5s-2.238 5-5 5z" fill="#00715e" data-original="#1e81ce" style="" class=""/><path d="m205 267.5h-110c-2.761 0-5-2.238-5-5s2.239-5 5-5h110c2.762 0 5 2.238 5 5s-2.238 5-5 5z" fill="#00715e" data-original="#1e81ce" style="" class=""/><path d="m205 292.5h-110c-2.761 0-5-2.238-5-5s2.239-5 5-5h110c2.762 0 5 2.238 5 5s-2.238 5-5 5z" fill="#00715e" data-original="#1e81ce" style="" class=""/><path d="m205 317.5h-110c-2.761 0-5-2.238-5-5s2.239-5 5-5h110c2.762 0 5 2.238 5 5s-2.238 5-5 5z" fill="#00715e" data-original="#1e81ce" style="" class=""/></g></g></g></g></svg>
