<?xml version="1.0"?>
<svg xmlns="http://www.w3.org/2000/svg" xmlns:xlink="http://www.w3.org/1999/xlink" xmlns:svgjs="http://svgjs.com/svgjs" version="1.1" width="512" height="512" x="0" y="0" viewBox="0 0 520 520" style="enable-background:new 0 0 512 512" xml:space="preserve" class=""><g><g xmlns="http://www.w3.org/2000/svg" id="_x35_35_x2C__Educational_App_x2C__Mobile_Education_x2C__Mobile_Learning_x2C__Pencil"><g><path d="m384.67 397.5v29.67c0 22.271-18.06 40.33-40.34 40.33h-149c-22.27 0-40.33-18.06-40.33-40.33v-29.67z" fill="#ceece7" data-original="#9bc9ff" style="" class=""/><path d="m450 102.5c13.8 0 25 11.19 25 25s-11.2 25-25 25c-13.81 0-25-11.19-25-25s11.19-25 25-25z" fill="#ceece7" data-original="#9bc9ff" style="" class=""/><circle cx="80" cy="362.5" fill="#ceece7" r="35" data-original="#9bc9ff" style="" class=""/><path d="m270 417.5c8.28 0 15 6.72 15 15s-6.72 15-15 15c-8.29 0-15-6.72-15-15s6.71-15 15-15z" fill="#ffffff" data-original="#ffffff" style=""/><path d="m384.67 92.83v14.67h-164.67-40-25v-14.67c0-22.27 18.061-40.33 40.33-40.33h149c22.28 0 40.34 18.06 40.34 40.33z" fill="#ceece7" data-original="#9bc9ff" style="" class=""/><path d="m384.67 107.5v290c-13.194 0-229.559 0-229.67 0 0-15.809 0-279.73 0-290z" fill="#ffffff" data-original="#ffffff" style=""/><path d="m295 152.5 22.19 33.28c-6.351 4.24-13.98 6.72-22.19 6.72s-15.84-2.48-22.19-6.72z" fill="#ceece7" data-original="#9bc9ff" style="" class=""/><circle cx="467.5" cy="235" fill="#00715e" r="7.5" data-original="#1e81ce" style="" class=""/><circle cx="442.5" cy="60" fill="#00715e" r="7.5" data-original="#1e81ce" style="" class=""/><circle cx="430" cy="330" fill="#00715e" r="7.5" data-original="#1e81ce" style="" class=""/><path d="m345 244.17v153.33h-33.33v-153.33c0-9.21 7.46-16.67 16.66-16.67 4.601 0 8.771 1.86 11.79 4.88 3.01 3.02 4.88 7.18 4.88 11.79z" fill="#ceece7" data-original="#9bc9ff" style="" class=""/><path d="m345 227.5v16.67c0-4.61-1.87-8.77-4.88-11.79-3.02-3.02-7.189-4.88-11.79-4.88-9.2 0-16.66 7.46-16.66 16.67 0-4.61-1.87-8.77-4.88-11.79-3.02-3.02-7.189-4.88-11.79-4.88-9.21 0-16.67 7.46-16.67 16.67 0-4.61-1.86-8.77-4.88-11.79s-7.18-4.88-11.79-4.88c-9.2 0-16.66 7.46-16.66 16.67v-16.67l27.81-41.72c6.35 4.24 13.98 6.72 22.19 6.72s15.84-2.48 22.19-6.72z" fill="#ffffff" data-original="#ffffff" style=""/><path d="m311.67 244.17v153.33h-33.34v-153.33c0-9.21 7.46-16.67 16.67-16.67 4.601 0 8.77 1.86 11.79 4.88 3.01 3.02 4.88 7.18 4.88 11.79z" fill="#ffffff" data-original="#ffffff" style=""/><path d="m278.33 244.17v153.33h-33.33v-153.33c0-9.21 7.46-16.67 16.66-16.67 4.61 0 8.771 1.86 11.79 4.88s4.88 7.18 4.88 11.79z" fill="#ceece7" data-original="#9bc9ff" style="" class=""/><path d="m220 107.5v100l-20-25-20 25v-100z" fill="#ceece7" data-original="#9bc9ff" style="" class=""/><g fill="#1e81ce"><circle cx="132.5" cy="195" r="7.5" fill="#00715e" data-original="#1e81ce" style="" class=""/><circle cx="122.5" cy="465" r="7.5" fill="#00715e" data-original="#1e81ce" style="" class=""/><circle cx="82.5" cy="260" r="7.5" fill="#00715e" data-original="#1e81ce" style="" class=""/><circle cx="47.5" cy="95" r="7.5" fill="#00715e" data-original="#1e81ce" style="" class=""/><path d="m270 452.5c-11.027 0-20-8.972-20-20s8.973-20 20-20c11.028 0 20 8.972 20 20s-8.972 20-20 20zm0-30c-5.514 0-10 4.486-10 10s4.486 10 10 10c5.515 0 10-4.486 10-10s-4.485-10-10-10z" fill="#00715e" data-original="#1e81ce" style="" class=""/><path d="m285 87.5h-30.33c-2.761 0-5-2.239-5-5s2.239-5 5-5h30.33c2.762 0 5 2.239 5 5s-2.238 5-5 5z" fill="#00715e" data-original="#1e81ce" style="" class=""/><path d="m384.67 112.5h-164.67c-2.761 0-5-2.239-5-5s2.239-5 5-5h164.67c2.762 0 5 2.239 5 5s-2.238 5-5 5z" fill="#00715e" data-original="#1e81ce" style="" class=""/><path d="m180 112.5h-25c-2.761 0-5-2.239-5-5s2.239-5 5-5h25c2.762 0 5 2.239 5 5s-2.238 5-5 5z" fill="#00715e" data-original="#1e81ce" style="" class=""/><path d="m245 402.5h-90c-2.761 0-5-2.238-5-5s2.239-5 5-5h90c2.762 0 5 2.238 5 5s-2.238 5-5 5z" fill="#00715e" data-original="#1e81ce" style="" class=""/><path d="m384.67 402.5h-39.67c-2.761 0-5-2.238-5-5s2.239-5 5-5h39.67c2.762 0 5 2.238 5 5s-2.238 5-5 5z" fill="#00715e" data-original="#1e81ce" style="" class=""/><path d="m344.33 472.5h-149c-24.995 0-45.33-20.335-45.33-45.33v-334.34c0-24.995 20.335-45.33 45.33-45.33h149c25.001 0 45.34 20.335 45.34 45.33v334.34c0 24.995-20.339 45.33-45.34 45.33zm-149-415c-19.48 0-35.33 15.849-35.33 35.33v334.34c0 19.482 15.85 35.33 35.33 35.33h149c19.486 0 35.34-15.849 35.34-35.33v-334.34c0-19.481-15.854-35.33-35.34-35.33z" fill="#00715e" data-original="#1e81ce" style="" class=""/><path d="m278.33 249.17c-2.761 0-5-2.239-5-5 0-3.12-1.213-6.052-3.416-8.254-2.202-2.203-5.133-3.415-8.254-3.415-6.429 0-11.66 5.235-11.66 11.67 0 2.761-2.238 5-5 5-2.761 0-5-2.239-5-5 0-11.949 9.717-21.67 21.66-21.67 5.792 0 11.235 2.253 15.325 6.345 4.092 4.091 6.345 9.534 6.345 15.325 0 2.76-2.238 4.999-5 4.999z" fill="#00715e" data-original="#1e81ce" style="" class=""/><path d="m278.33 402.5c-2.761 0-5-2.238-5-5v-153.33c0-11.949 9.722-21.67 21.67-21.67 5.792 0 11.234 2.253 15.326 6.344 4.093 4.108 6.344 9.548 6.344 15.326 0 2.761-2.238 5-5 5-2.761 0-5-2.239-5-5 0-3.113-1.215-6.047-3.421-8.261-2.196-2.196-5.128-3.409-8.249-3.409-6.435 0-11.67 5.235-11.67 11.67v153.33c0 2.762-2.238 5-5 5z" fill="#00715e" data-original="#1e81ce" style="" class=""/><path d="m311.67 402.5c-2.761 0-5-2.238-5-5v-153.33c0-11.949 9.717-21.67 21.66-21.67 5.792 0 11.234 2.253 15.326 6.344 4.093 4.108 6.344 9.548 6.344 15.326 0 2.761-2.238 5-5 5-2.761 0-5-2.239-5-5 0-3.113-1.215-6.047-3.421-8.261-2.196-2.196-5.128-3.409-8.249-3.409-6.429 0-11.66 5.235-11.66 11.67v153.33c0 2.762-2.238 5-5 5z" fill="#00715e" data-original="#1e81ce" style="" class=""/><path d="m295 197.5c-8.924 0-17.558-2.615-24.966-7.562-2.297-1.534-2.916-4.638-1.382-6.935 1.533-2.297 4.639-2.915 6.935-1.382 5.759 3.846 12.473 5.878 19.413 5.878 6.941 0 13.654-2.033 19.414-5.878 2.296-1.534 5.4-.916 6.935 1.382 1.533 2.296.915 5.401-1.382 6.935-7.409 4.947-16.042 7.562-24.967 7.562z" fill="#00715e" data-original="#1e81ce" style="" class=""/><path d="m345 402.5h-100c-2.761 0-5-2.238-5-5v-170c0-.987.292-1.952.84-2.773l50-75c.928-1.391 2.489-2.226 4.16-2.226 1.672 0 3.233.835 4.16 2.226l50.001 75c.547.821.839 1.787.839 2.773v170c0 2.762-2.238 5-5 5zm-95-10h90v-163.486l-45-67.501-45 67.501z" fill="#00715e" data-original="#1e81ce" style="" class=""/><path d="m220.001 212.501c-1.49 0-2.938-.668-3.905-1.877l-16.096-20.12-16.096 20.12c-1.326 1.658-3.557 2.298-5.559 1.595-2.004-.703-3.346-2.595-3.346-4.718v-100c0-2.761 2.239-5 5-5h40c2.762 0 5 2.239 5 5v100c0 2.124-1.341 4.015-3.345 4.718-.541.189-1.1.282-1.653.282zm-20.001-35.001c1.52 0 2.956.69 3.904 1.876l11.096 13.87v-80.746h-30v80.746l11.096-13.87c.949-1.186 2.385-1.876 3.904-1.876z" fill="#00715e" data-original="#1e81ce" style="" class=""/><path d="m220 367.5h-40c-2.761 0-5-2.238-5-5s2.239-5 5-5h40c2.762 0 5 2.238 5 5s-2.238 5-5 5z" fill="#00715e" data-original="#1e81ce" style="" class=""/><path d="m220 347.5h-40c-2.761 0-5-2.238-5-5s2.239-5 5-5h40c2.762 0 5 2.238 5 5s-2.238 5-5 5z" fill="#00715e" data-original="#1e81ce" style="" class=""/><path d="m220 327.5h-40c-2.761 0-5-2.238-5-5s2.239-5 5-5h40c2.762 0 5 2.238 5 5s-2.238 5-5 5z" fill="#00715e" data-original="#1e81ce" style="" class=""/><path d="m220 307.5h-40c-2.761 0-5-2.238-5-5s2.239-5 5-5h40c2.762 0 5 2.238 5 5s-2.238 5-5 5z" fill="#00715e" data-original="#1e81ce" style="" class=""/><path d="m220 287.5h-40c-2.761 0-5-2.238-5-5s2.239-5 5-5h40c2.762 0 5 2.238 5 5s-2.238 5-5 5z" fill="#00715e" data-original="#1e81ce" style="" class=""/><path d="m220 267.5h-40c-2.761 0-5-2.238-5-5s2.239-5 5-5h40c2.762 0 5 2.238 5 5s-2.238 5-5 5z" fill="#00715e" data-original="#1e81ce" style="" class=""/><path d="m220 247.5h-40c-2.761 0-5-2.239-5-5s2.239-5 5-5h40c2.762 0 5 2.239 5 5s-2.238 5-5 5z" fill="#00715e" data-original="#1e81ce" style="" class=""/><path d="m450 157.5c-16.542 0-30-13.458-30-30s13.458-30 30-30 30 13.458 30 30-13.458 30-30 30zm0-50c-11.027 0-20 8.972-20 20s8.973 20 20 20c11.028 0 20-8.972 20-20s-8.972-20-20-20z" fill="#00715e" data-original="#1e81ce" style="" class=""/><path d="m80 402.5c-22.056 0-40-17.944-40-40s17.944-40 40-40c22.057 0 40 17.944 40 40s-17.943 40-40 40zm0-70c-16.542 0-30 13.458-30 30s13.458 30 30 30 30-13.458 30-30-13.458-30-30-30z" fill="#00715e" data-original="#1e81ce" style="" class=""/></g></g></g></g></svg>
