<!DOCTYPE svg PUBLIC "-//W3C//DTD SVG 20010904//EN" "http://www.w3.org/TR/2001/REC-SVG-20010904/DTD/svg10.dtd">
<svg version="1.0" xmlns="http://www.w3.org/2000/svg" width="200px" height="200px" viewBox="0 0 2000 2000" preserveAspectRatio="xMidYMid meet">
<g id="layer101" fill="#45b09e" stroke="none">
<path d="M890 1979 c-19 -12 -38 -27 -42 -33 -28 -42 21 -71 68 -40 40 27 125 25 164 -4 37 -28 70 -22 70 12 0 72 -176 116 -260 65z"/>
<path d="M757 1893 c-11 -10 -8 -51 4 -58 11 -7 97 -30 322 -87 135 -33 159 -32 165 9 4 28 -17 36 -246 93 -204 50 -233 56 -245 43z"/>
<path d="M754 1736 c-17 -43 -5 -49 211 -103 227 -58 278 -62 283 -26 2 14 -4 26 -18 33 -27 15 -412 110 -445 110 -14 0 -28 -6 -31 -14z"/>
<path d="M752 1598 c-18 -18 -15 -36 7 -50 12 -7 17 -16 11 -23 -5 -5 -15 -39 -24 -75 -18 -79 -49 -136 -116 -215 -108 -126 -140 -209 -140 -359 0 -151 20 -211 107 -328 97 -128 267 -207 427 -196 327 23 556 347 467 660 -24 84 -56 138 -132 224 -73 83 -98 129 -106 195 -4 36 -12 54 -27 64 -12 7 -77 27 -146 44 -69 17 -158 40 -199 51 -86 23 -112 25 -129 8z m113 -85 l30 -5 -7 -100 c-8 -108 -44 -238 -65 -238 -9 0 -13 -15 -13 -46 0 -39 -3 -45 -16 -40 -9 4 -36 11 -60 17 -59 15 -94 -6 -94 -56 0 -27 17 -59 85 -152 47 -65 98 -126 113 -135 22 -15 50 -18 147 -18 97 0 125 3 147 18 15 9 66 70 113 135 68 93 85 125 85 152 0 50 -35 71 -94 56 -24 -6 -51 -13 -60 -17 -13 -5 -16 1 -16 40 0 25 -4 46 -8 46 -16 0 -53 132 -67 243 -6 44 -5 48 12 43 10 -3 30 -8 45 -11 20 -5 28 -15 33 -43 11 -58 61 -146 118 -209 111 -120 141 -197 135 -341 -3 -85 -8 -106 -38 -167 -39 -82 -123 -171 -196 -208 -75 -38 -186 -53 -271 -38 -127 22 -218 81 -286 184 -49 74 -67 128 -74 223 -9 128 29 235 117 328 65 69 107 138 130 215 25 78 25 117 3 131 -16 10 -16 11 2 5 11 -4 34 -9 50 -12z"/>
<path d="M925 708 c-91 -71 -50 -198 64 -198 49 0 80 18 100 57 51 99 -77 210 -164 141z"/>
</g>
<g id="layer102" fill="#ffb402" stroke="none">
<path d="M1580 1349 c-52 -44 -99 -89 -104 -100 -10 -22 8 -49 33 -49 9 0 65 41 125 91 83 70 106 96 104 113 -2 15 -11 22 -33 23 -25 3 -47 -11 -125 -78z"/>
<path d="M257 1413 c-23 -23 -2 -54 91 -132 104 -87 134 -98 140 -49 3 28 -2 34 -123 137 -55 47 -91 61 -108 44z"/>
<path d="M908 1094 c-51 -16 -60 -32 -28 -52 44 -27 12 -88 -43 -80 -21 3 -22 -1 -25 -69 -2 -55 0 -73 10 -73 7 0 47 11 88 25 l76 25 74 -25 c105 -36 101 -37 98 48 -3 68 -4 72 -25 69 -55 -8 -87 53 -43 80 33 21 23 36 -32 53 -62 18 -88 18 -150 -1z"/>
<path d="M117 813 c-14 -13 -6 -53 12 -63 11 -5 69 -10 129 -10 95 0 111 3 126 19 14 15 15 24 6 40 -10 20 -19 21 -139 21 -70 0 -131 -3 -134 -7z"/>
<path d="M1592 808 c-18 -18 -15 -35 10 -52 17 -12 50 -16 139 -16 126 0 144 7 137 52 -3 23 -6 23 -138 26 -97 2 -139 -1 -148 -10z"/>
<path d="M444 380 c-86 -73 -101 -94 -83 -116 22 -26 51 -14 130 54 75 64 99 98 84 121 -15 25 -54 7 -131 -59z"/>
<path d="M1402 438 c-7 -7 -12 -18 -12 -24 0 -18 181 -174 201 -174 25 0 43 27 33 49 -14 29 -171 161 -192 161 -10 0 -23 -5 -30 -12z"/>
<path d="M964 257 c-2 -7 -3 -67 -2 -133 l3 -119 31 -3 c26 -3 33 1 38 20 10 38 7 208 -4 229 -12 22 -58 26 -66 6z"/>
</g>
<g id="layer103" fill="#8fc5a1" stroke="none">
<path d="M908 1094 c-51 -16 -60 -32 -28 -52 44 -27 12 -88 -43 -80 -21 3 -22 -1 -25 -69 -2 -55 0 -73 10 -73 7 0 47 11 88 25 l76 25 74 -25 c105 -36 101 -37 98 48 -3 68 -4 72 -25 69 -55 -8 -87 53 -43 80 33 21 23 37 -36 54 -73 21 -80 13 -8 -10 54 -17 55 -18 35 -32 -14 -10 -21 -26 -21 -49 0 -38 20 -55 64 -55 25 0 26 -2 26 -61 0 -45 -3 -60 -12 -56 -7 2 -45 15 -84 27 l-70 23 -70 -23 c-38 -13 -75 -25 -81 -28 -10 -3 -13 12 -13 57 0 59 1 61 26 61 44 0 64 17 64 55 0 23 -7 39 -21 48 -19 14 -18 16 38 35 67 23 52 28 -19 6z"/>
</g>
<g id="layer104" fill="#a4d8cc" stroke="none">
<path d="M915 1094 c-56 -20 -64 -31 -37 -50 44 -31 19 -89 -35 -82 l-28 3 -3 -72 c-2 -40 0 -73 4 -73 5 0 44 12 89 26 l81 27 80 -27 c43 -14 83 -26 87 -26 4 0 7 33 5 73 l-3 72 -28 -3 c-15 -2 -35 2 -43 8 -21 18 -17 57 7 74 12 8 18 19 15 24 -7 12 -105 46 -112 40 -2 -3 21 -12 52 -22 54 -17 55 -18 35 -32 -14 -10 -21 -26 -21 -49 0 -38 20 -55 64 -55 25 0 26 -2 26 -61 0 -45 -3 -60 -12 -56 -7 2 -45 15 -84 27 l-70 23 -70 -23 c-38 -13 -75 -25 -81 -28 -10 -3 -13 12 -13 57 0 59 1 61 26 61 44 0 64 17 64 55 0 23 -7 39 -21 48 -19 14 -18 16 38 35 32 11 51 20 43 21 -8 0 -33 -7 -55 -15z"/>
</g>
<g id="layer105" fill="#fbdf96" stroke="none">
<path d="M866 1071 c-3 -4 6 -19 19 -31 14 -13 25 -18 25 -12 0 6 -9 17 -21 25 -15 11 -17 16 -7 20 9 4 9 6 1 6 -6 1 -14 -3 -17 -8z"/>
<path d="M1088 1073 c10 -4 8 -9 -7 -20 -12 -8 -21 -19 -21 -25 0 -6 11 -1 25 12 24 23 25 41 2 39 -8 0 -8 -2 1 -6z"/>
<path d="M898 979 c-2 -6 -22 -14 -43 -18 l-40 -6 -3 -68 c-2 -37 1 -67 5 -67 4 0 44 12 87 26 l80 27 81 -27 c45 -14 84 -26 88 -26 4 0 7 32 7 70 l0 70 -34 0 c-19 0 -42 7 -50 16 -9 8 -16 11 -16 5 0 -15 34 -31 64 -31 25 0 26 -2 26 -61 0 -45 -3 -60 -12 -56 -7 2 -45 15 -84 27 l-70 23 -70 -23 c-38 -13 -75 -25 -81 -28 -10 -3 -13 12 -13 57 0 60 0 61 28 61 30 0 71 24 61 35 -4 3 -9 1 -11 -6z"/>
</g>
<g id="layer106" fill="#dce4c5" stroke="none">
<path d="M1153 890 c0 -41 2 -58 4 -37 2 20 2 54 0 75 -2 20 -4 3 -4 -38z"/>
<path d="M813 885 c0 -38 2 -53 4 -32 2 20 2 52 0 70 -2 17 -4 1 -4 -38z"/>
</g>


</svg>