<?xml version="1.0"?>
<svg xmlns="http://www.w3.org/2000/svg" xmlns:xlink="http://www.w3.org/1999/xlink" xmlns:svgjs="http://svgjs.com/svgjs" version="1.1" width="512" height="512" x="0" y="0" viewBox="0 0 520 520" style="enable-background:new 0 0 512 512" xml:space="preserve" class=""><g><g xmlns="http://www.w3.org/2000/svg" id="_x35_12_x2C__Book_x2C__Education_x2C__Online_x2C__World_Wide_x2C__Globe"><g><path d="m461.67 323.085c-18.561 0-39.779 0-58.34 0-12.89 0-23.33 10.45-23.33 23.33v16.67h105v-16.67c0-12.88-10.45-23.33-23.33-23.33z" fill="#ceece7" data-original="#9bc9ff" style="" class=""/><path d="m432.5 363.085h52.5v42.5c0 29-23.51 52.5-52.5 52.5-29 0-52.5-23.5-52.5-52.5v-42.5z" fill="#ffffff" data-original="#ffffff" style=""/><path d="m165 242.835c0-21.95 17.79-39.75 39.75-39.75h90.25v40h-129.99-.01z" fill="#ceece7" data-original="#9bc9ff" style="" class=""/><path d="m165 242.835v.25h-130v-40h90.25c21.95 0 39.75 17.8 39.75 39.75z" fill="#ceece7" data-original="#9bc9ff" style="" class=""/><path d="m204.75 203.085c-21.96 0-39.75 17.8-39.75 39.75v-154.75c0-22.74 18.431-41.17 41.16-41.17h88.84v111.17 45z" fill="#ffffff" data-original="#ffffff" style=""/><path d="m165 88.085v154.75c0-21.95-17.8-39.75-39.75-39.75h-90.25v-156.17h88.83c22.74 0 41.17 18.43 41.17 41.17z" fill="#ffffff" data-original="#ffffff" style=""/><circle cx="320" cy="443.085" fill="#ceece7" r="30" data-original="#9bc9ff" style="" class=""/><path d="m365 48.085c11.04 0 20 8.95 20 20s-8.96 20-20 20c-11.05 0-20-8.95-20-20s8.95-20 20-20z" fill="#ceece7" data-original="#9bc9ff" style="" class=""/><path d="m216.53 411.465c-10.14 34.311-29.42 57.48-51.53 57.48v-69.91c18.57 0 36.09 4.48 51.53 12.43z" fill="#ffffff" data-original="#ffffff" style=""/><path d="m113.46 411.465c10.141 34.311 29.431 57.48 51.54 57.48-32.13 0-61.13-13.42-81.689-34.971l.31-.3c8.609-8.949 18.69-16.479 29.839-22.209z" fill="#ffffff" data-original="#ffffff" style=""/><path d="m165 356.015v43.021c-18.569 0-36.09 4.479-51.54 12.43-4.859-16.38-7.62-35.3-7.62-55.45h59.16z" fill="#ffffff" data-original="#ffffff" style=""/><path d="m224.15 356.015h53.78c0 30.25-11.891 57.721-31.25 77.98-8.681-9.09-18.86-16.74-30.15-22.53 4.861-16.38 7.62-35.3 7.62-55.45z" fill="#ffffff" data-original="#ffffff" style=""/><path d="m165.01 243.085c32.12 0 61.11 13.42 81.671 34.95-8.681 9.09-18.86 16.74-30.15 22.53-10.14-34.31-29.411-57.47-51.521-57.48z" fill="#ffffff" data-original="#ffffff" style=""/><path d="m224.15 356.015h-59.15v-43.02c18.57 0 36.09-4.48 51.53-12.43 4.861 16.38 7.62 35.3 7.62 55.45z" fill="#ffffff" data-original="#ffffff" style=""/><path d="m113.46 300.565c-4.859 16.38-7.62 35.3-7.62 55.449h-53.77c0-30.25 11.89-57.72 31.25-77.979 8.68 9.09 18.861 16.73 30.14 22.53z" fill="#ffffff" data-original="#ffffff" style=""/><path d="m165 243.085v69.91c-18.569 0-36.09-4.48-51.54-12.43 10.141-34.31 29.431-57.48 51.54-57.48z" fill="#ffffff" data-original="#ffffff" style=""/><path d="m246.681 433.995c-20.561 21.54-49.561 34.95-81.681 34.95 22.11 0 41.391-23.17 51.53-57.48 11.29 5.79 21.47 13.44 30.151 22.53z" fill="#ceece7" data-original="#9bc9ff" style="" class=""/><path d="m165 468.945c-22.109 0-41.399-23.17-51.54-57.48 15.45-7.95 32.971-12.43 51.54-12.43z" fill="#ceece7" data-original="#9bc9ff" style="" class=""/><path d="m165 356.015h59.15c0 20.15-2.76 39.07-7.62 55.45-15.44-7.95-32.96-12.43-51.53-12.43z" fill="#ceece7" data-original="#9bc9ff" style="" class=""/><path d="m105.84 356.015c0 20.15 2.761 39.07 7.62 55.45-11.149 5.73-21.229 13.26-29.84 22.21l-.31.3c-19.36-20.26-31.24-47.72-31.24-77.96z" fill="#ceece7" data-original="#9bc9ff" style="" class=""/><path d="m277.931 356.015h-53.78c0-20.149-2.76-39.069-7.62-55.449 11.29-5.79 21.47-13.44 30.15-22.53 19.359 20.259 31.25 47.729 31.25 77.979z" fill="#ceece7" data-original="#9bc9ff" style="" class=""/><path d="m165 312.995v43.02h-59.16c0-20.149 2.761-39.069 7.62-55.449 15.45 7.949 32.971 12.429 51.54 12.429z" fill="#ceece7" data-original="#9bc9ff" style="" class=""/><path d="m165 312.995v-69.91h.01c22.11.01 41.381 23.17 51.52 57.48-15.44 7.95-32.96 12.43-51.53 12.43z" fill="#ceece7" data-original="#9bc9ff" style="" class=""/><path d="m165 243.085c-22.109 0-41.399 23.17-51.54 57.48-11.279-5.801-21.46-13.44-30.14-22.53 20.56-21.54 49.56-34.95 81.68-34.95z" fill="#ceece7" data-original="#9bc9ff" style="" class=""/><g fill="#1e81ce"><circle cx="472.5" cy="70.585" r="7.5" fill="#00715e" data-original="#1e81ce" style="" class=""/><circle cx="462.5" cy="270.585" r="7.5" fill="#00715e" data-original="#1e81ce" style="" class=""/><circle cx="387.5" cy="470.585" r="7.5" fill="#00715e" data-original="#1e81ce" style="" class=""/><circle cx="342.5" cy="335.585" r="7.5" fill="#00715e" data-original="#1e81ce" style="" class=""/><circle cx="332.5" cy="255.585" r="7.5" fill="#00715e" data-original="#1e81ce" style="" class=""/><circle cx="67.5" cy="465.585" r="7.5" fill="#00715e" data-original="#1e81ce" style="" class=""/><circle cx="47.5" cy="280.585" r="7.5" fill="#00715e" data-original="#1e81ce" style="" class=""/><path d="m35 208.085c-2.761 0-5-2.239-5-5v-156.17c0-2.761 2.239-5 5-5h88.83c25.458 0 46.17 20.712 46.17 46.17 0 2.761-2.238 5-5 5-2.761 0-5-2.239-5-5 0-19.944-16.226-36.17-36.17-36.17h-83.83v151.17c0 2.761-2.238 5-5 5z" fill="#00715e" data-original="#1e81ce" style="" class=""/><path d="m165 248.085h-130c-2.761 0-5-2.239-5-5v-40c0-2.761 2.239-5 5-5h90.25c24.676 0 44.75 20.075 44.75 44.75 0 .042 0 .083-.001.125.001.041.001.083.001.125 0 2.761-2.238 5-5 5zm-125-10h119.677c-2.322-16.923-16.876-30-34.427-30h-85.25z" fill="#00715e" data-original="#1e81ce" style="" class=""/><path d="m165 247.835c-2.761 0-5-2.239-5-5v-154.75c0-25.458 20.708-46.17 46.16-46.17h88.84c2.762 0 5 2.239 5 5v156.17c0 2.761-2.238 5-5 5-2.761 0-5-2.239-5-5v-151.17h-83.84c-19.939 0-36.16 16.226-36.16 36.17v154.75c0 2.761-2.238 5-5 5z" fill="#00715e" data-original="#1e81ce" style="" class=""/><path d="m295 248.085h-129.99c-.003 0-.007 0-.01 0-2.761 0-5-2.239-5-5v-.25c0-24.675 20.075-44.75 44.75-44.75h90.25c2.762 0 5 2.239 5 5v40c0 2.761-2.238 5-5 5zm-124.677-10h119.677v-30h-85.25c-17.551 0-32.104 13.077-34.427 30z" fill="#00715e" data-original="#1e81ce" style="" class=""/><path d="m165 473.945c-23.617 0-45.203-23.398-56.335-61.064-5.118-17.252-7.825-36.918-7.825-56.867 0-19.948 2.707-39.614 7.827-56.871 11.13-37.66 32.716-61.059 56.333-61.059h.022c23.605.016 45.176 23.413 56.303 61.063 5.118 17.25 7.825 36.916 7.825 56.866s-2.707 39.617-7.827 56.872c-11.129 37.662-32.712 61.06-56.323 61.06zm.005-225.86c-.002 0-.003 0-.005 0-19.008 0-36.92 20.652-46.745 53.897-4.852 16.352-7.415 35.034-7.415 54.032 0 18.999 2.563 37.682 7.414 54.028 9.826 33.25 27.738 53.902 46.746 53.902 19.003 0 36.91-20.652 46.735-53.897 4.852-16.351 7.415-35.033 7.415-54.033s-2.563-37.682-7.414-54.027c-9.823-33.241-27.729-53.894-46.729-53.902 0 0-.001 0-.002 0z" fill="#00715e" data-original="#1e81ce" style="" class=""/><path d="m165 317.995c-18.973 0-37.082-4.368-53.827-12.983-11.742-6.039-22.33-13.953-31.469-23.523-1.907-1.997-1.834-5.162.163-7.069 1.997-1.906 5.162-1.833 7.069.163 8.367 8.763 18.061 16.009 28.811 21.537 15.316 7.88 31.888 11.875 49.253 11.875 17.369 0 33.936-3.995 49.241-11.875 10.738-5.507 20.434-12.752 28.823-21.538 1.907-1.996 5.072-2.07 7.069-.163s2.069 5.072.163 7.069c-9.164 9.596-19.757 17.512-31.485 23.526-16.491 8.491-35.101 12.981-53.811 12.981z" fill="#00715e" data-original="#1e81ce" style="" class=""/><path d="m246.681 438.995c-1.318 0-2.634-.518-3.616-1.547-8.39-8.786-18.085-16.031-28.816-21.534-15.31-7.884-31.877-11.879-49.248-11.879-17.367 0-33.939 3.995-49.252 11.876-10.633 5.464-20.229 12.607-28.524 21.23-1.914 1.989-5.079 2.051-7.069.137s-2.052-5.08-.138-7.07c9.062-9.419 19.545-17.222 31.158-23.19 16.74-8.614 34.851-12.982 53.825-12.982 18.712 0 37.322 4.49 53.819 12.984 11.721 6.011 22.314 13.927 31.478 23.522 1.906 1.997 1.834 5.162-.163 7.069-.97.925-2.213 1.384-3.454 1.384z" fill="#00715e" data-original="#1e81ce" style="" class=""/><path d="m277.931 361.015h-225.861c-2.762 0-5-2.238-5-5s2.238-5 5-5h225.86c2.761 0 5 2.238 5 5 .001 2.761-2.239 5-4.999 5z" fill="#00715e" data-original="#1e81ce" style="" class=""/><path d="m165 473.945c-2.761 0-5-2.238-5-5v-225.86c0-2.761 2.239-5 5-5 2.762 0 5 2.239 5 5v225.86c0 2.762-2.238 5-5 5z" fill="#00715e" data-original="#1e81ce" style="" class=""/><path d="m165 473.945c-32.544 0-62.84-12.97-85.308-36.52-21.036-22.013-32.622-50.927-32.622-81.411 0-30.49 11.59-59.41 32.635-81.434 22.463-23.534 52.756-36.496 85.295-36.496 32.533 0 62.821 12.961 85.297 36.497 21.044 22.022 32.634 50.942 32.634 81.433s-11.59 59.411-32.636 81.435c-22.463 23.534-52.755 36.496-85.295 36.496zm.01-225.86c-29.789 0-57.513 11.862-78.073 33.402-19.26 20.156-29.866 46.623-29.866 74.527 0 27.898 10.603 54.358 29.854 74.506 20.565 21.556 48.292 33.425 78.075 33.425 29.78 0 57.504-11.862 78.063-33.402 19.261-20.156 29.867-46.623 29.867-74.528 0-27.904-10.607-54.371-29.865-74.525-20.571-21.543-48.291-33.405-78.055-33.405z" fill="#00715e" data-original="#1e81ce" style="" class=""/><path d="m432.5 463.085c-31.705 0-57.5-25.794-57.5-57.5v-59.17c0-15.621 12.709-28.33 28.33-28.33h58.34c15.621 0 28.33 12.709 28.33 28.33v59.17c0 31.706-25.794 57.5-57.5 57.5zm-29.17-135c-10.107 0-18.33 8.223-18.33 18.33v59.17c0 26.191 21.309 47.5 47.5 47.5s47.5-21.309 47.5-47.5v-59.17c0-10.107-8.223-18.33-18.33-18.33z" fill="#00715e" data-original="#1e81ce" style="" class=""/><path d="m485 368.085h-105c-2.761 0-5-2.238-5-5s2.239-5 5-5h105c2.762 0 5 2.238 5 5s-2.238 5-5 5z" fill="#00715e" data-original="#1e81ce" style="" class=""/><path d="m432.5 388.085c-2.761 0-5-2.238-5-5v-248.75c0-8.961-7.289-16.25-16.25-16.25-4.338 0-8.422 1.69-11.499 4.76-3.061 3.068-4.751 7.152-4.751 11.49v88.75c0 13.785-11.215 25-25 25-6.688 0-12.967-2.603-17.681-7.329-4.718-4.718-7.319-10.996-7.319-17.671v-37.5c0-12.407-10.093-22.5-22.5-22.5h-27.5c-2.761 0-5-2.239-5-5s2.239-5 5-5h27.5c17.921 0 32.5 14.58 32.5 32.5v37.5c0 4.004 1.561 7.77 4.395 10.604 2.828 2.836 6.593 4.396 10.605 4.396 8.271 0 15-6.729 15-15v-88.75c0-7.004 2.727-13.596 7.68-18.561 4.975-4.961 11.566-7.689 18.57-7.689 14.475 0 26.25 11.776 26.25 26.25v248.75c0 2.762-2.238 5-5 5z" fill="#00715e" data-original="#1e81ce" style="" class=""/><path d="m140 183.085h-80c-2.761 0-5-2.239-5-5s2.239-5 5-5h80c2.762 0 5 2.239 5 5s-2.238 5-5 5z" fill="#00715e" data-original="#1e81ce" style="" class=""/><path d="m140 163.085h-80c-2.761 0-5-2.239-5-5s2.239-5 5-5h80c2.762 0 5 2.239 5 5s-2.238 5-5 5z" fill="#00715e" data-original="#1e81ce" style="" class=""/><path d="m140 143.085h-80c-2.761 0-5-2.239-5-5s2.239-5 5-5h80c2.762 0 5 2.239 5 5s-2.238 5-5 5z" fill="#00715e" data-original="#1e81ce" style="" class=""/><path d="m140 123.085h-80c-2.761 0-5-2.239-5-5s2.239-5 5-5h80c2.762 0 5 2.239 5 5s-2.238 5-5 5z" fill="#00715e" data-original="#1e81ce" style="" class=""/><path d="m100 103.085h-40c-2.761 0-5-2.239-5-5s2.239-5 5-5h40c2.762 0 5 2.239 5 5s-2.238 5-5 5z" fill="#00715e" data-original="#1e81ce" style="" class=""/><path d="m270 183.085h-80c-2.761 0-5-2.239-5-5s2.239-5 5-5h80c2.762 0 5 2.239 5 5s-2.238 5-5 5z" fill="#00715e" data-original="#1e81ce" style="" class=""/><path d="m270 163.085h-80c-2.761 0-5-2.239-5-5s2.239-5 5-5h80c2.762 0 5 2.239 5 5s-2.238 5-5 5z" fill="#00715e" data-original="#1e81ce" style="" class=""/><path d="m270 143.085h-80c-2.761 0-5-2.239-5-5s2.239-5 5-5h80c2.762 0 5 2.239 5 5s-2.238 5-5 5z" fill="#00715e" data-original="#1e81ce" style="" class=""/><path d="m270 123.085h-80c-2.761 0-5-2.239-5-5s2.239-5 5-5h80c2.762 0 5 2.239 5 5s-2.238 5-5 5z" fill="#00715e" data-original="#1e81ce" style="" class=""/><path d="m230 103.085h-40c-2.761 0-5-2.239-5-5s2.239-5 5-5h40c2.762 0 5 2.239 5 5s-2.238 5-5 5z" fill="#00715e" data-original="#1e81ce" style="" class=""/><path d="m365 93.085c-13.785 0-25-11.215-25-25s11.215-25 25-25 25 11.215 25 25-11.215 25-25 25zm0-40c-8.271 0-15 6.729-15 15s6.729 15 15 15 15-6.729 15-15-6.729-15-15-15z" fill="#00715e" data-original="#1e81ce" style="" class=""/><path d="m320 478.085c-19.299 0-35-15.701-35-35s15.701-35 35-35 35 15.701 35 35-15.701 35-35 35zm0-60c-13.785 0-25 11.215-25 25s11.215 25 25 25 25-11.215 25-25-11.215-25-25-25z" fill="#00715e" data-original="#1e81ce" style="" class=""/></g></g></g></g></svg>
